<svg xmlns="http://www.w3.org/2000/svg" version="1.1" xmlns:xlink="http://www.w3.org/1999/xlink" xmlns:svgjs="http://svgjs.dev/svgjs" viewBox="0 0 800 800"><defs><linearGradient x1="50%" y1="0%" x2="50%" y2="100%" id="ccchaos-grad"><stop stop-color="hsl(1.4, 100%, 67%)" stop-opacity="1" offset="0%"></stop><stop stop-color="hsl(167, 52%, 78%)" stop-opacity="1" offset="100%"></stop></linearGradient></defs><g stroke-width="2" stroke="url(#ccchaos-grad)" fill="none" stroke-linecap="round"><path d="M421.74 104.09C432.12 101.3 442.45 100.36 452.67 101.35 462.85 103.78 472.86 107.92 482.58 113.45 492.15 119.63 501.27 126.42 509.79 133.4 517.97 139.86 525.35 145.85 531.76 151.17 545.25 160.38 555.17 167.63 557.42 170.59 560.22 173.17 564.14 176.75 569.66 181.37 577.36 186.72 587.13 193.14 599 200.54 612.71 208.63 627.73 217.54 643.27 227.09 658.41 237.1 672.1 247.54 683.19 258.26 691.04 269.18 694.77 280.23 694.05 291.29 689.72 302.39 681.97 313.43 672 324.36 662.06 335.28 653.18 346.07 647.02 356.74 645.37 367.38 648.39 377.91 656.1 388.32 667.97 398.73 682.18 409.03 696.64 419.18 709.46 429.34 718.06 439.1 721.23 448.42 719.04 457.71 711.3 466.5 699.19 474.74 684.54 482.88 668.89 490.39 654.08 497.22 641.77 503.88 632.83 509.81 627.7 514.99 627.85 522.22 642.71 533.69 650.72 538.71 654.27 542.54 655.09 546.63 652.92 551.24 648.14 556.98 640.47 563.69 630.41 571.57 618.57 580.91 605.34 591.53 591.4 603.35 577.1 616.22 562.97 629.74 549.38 643.42 536.38 656.8 524.25 669.2 513.01 679.92 502.57 688.62 492.9 694.6 483.84 697.45 475.37 697.53 467.23 694.53 459.23 688.79 451.52 681.61 443.73 673.23 435.72 664.63 427.8 657.48 419.54 652.12 410.9 649.37 402.25 650.19 393.18 654.22 383.7 661.2 374.21 670.85 364.55 681.48 354.81 691.88 345.11 701.5 335.39 708.68 325.74 712.66 316.23 713.52 306.89 710.57 297.84 704.11 289.03 694.94 280.62 683.39 272.73 670.37 265.14 656.87 258.15 643.51 251.8 631.03 245.73 620.11 240.27 610.93 235.38 603.63 228.29 596.77 214.86 592.28 207.6 592.32 201.94 592.74 195.85 592.57 189.29 591.51 182 590 174.37 587.27 166.6 583.29 158.63 578.56 151 572.61 144 565.58 137.6 557.9 132.31 549.34 128.31 540.1 125.26 530.46 123.47 520.37 122.83 510 122.62 499.44 122.97 488.76 123.58 478.08 123.61 467.34 123.29 456.69 122.49 446.2 120.67 435.71 118.42 425.39 116.01 415.29 113.28 405.19 111.18 395.53 110.04 386.29 109.67 377.01 110.73 368.11 113.22 359.54 116.64 350.88 121.21 342.46 126.61 334.25 132.14 325.84 137.84 317.52 143.42 309.22 148.26 300.6 152.6 291.88 156.43 282.99 159.37 273.71 162 264.2 164.53 254.43 166.74 244.31 169.35 233.99 172.57 223.55 176.2 213.01 180.79 202.59 186.39 192.47 192.74 182.69 200.12 173.58 208.4 165.36 217.31 157.97 226.9 151.77 236.97 146.91 247.34 143.06 257.95 140.53 268.65 139.27 279.33 138.6 289.98 138.75 300.52 139.44 310.9 139.8 321.17 140.03 331.34 139.82 341.34 138.43 351.3 136.19 361.26 133.06 371.12 128.68 381.06 123.69 391.12 118.43 401.14 112.89 411.35 107.95 421.73 104.09" stroke-dasharray="10 8" transform="rotate(0, 400, 400)" opacity="0.05"></path><path d="M421.09 114.8C431.06 112.02 440.78 110.99 450.21 111.8 459.59 113.99 468.6 117.85 477.14 123.08 485.54 129.01 493.33 135.64 500.42 142.57 507.23 149.12 513.21 155.34 518.27 161.01 529.36 171.67 540.74 180.02 545.54 182.51 550.39 184.51 556.57 187.3 564.39 190.97 574.12 195.22 585.59 200.45 598.62 206.63 612.79 213.44 627.53 221.1 642.03 229.49 655.47 238.37 666.94 247.79 675.51 257.61 680.86 267.72 682.34 278.07 679.87 288.54 674.47 299.14 666.41 309.76 656.85 320.33 647.87 330.94 640.29 341.45 635.51 351.83 635 362.22 638.75 372.47 646.67 382.53 658.24 392.61 671.79 402.5 685.47 412.16 697.66 421.83 706.04 431.02 709.51 439.7 708.11 448.36 701.56 456.47 690.79 463.99 677.36 471.45 662.56 478.28 648 484.47 635.25 490.59 625.19 496.06 618.42 500.94 615.5 508.02 625.7 520.61 633.4 526.95 637.79 531.89 640.2 537.29 640.18 543.36 638.03 550.53 633.18 558.67 625.91 567.89 616.72 578.3 605.79 589.73 593.66 602 580.71 614.88 567.39 627.98 554.09 640.82 540.94 652.98 528.27 663.86 516.24 672.86 504.74 679.8 493.93 684.09 483.75 685.46 474.08 684.4 464.87 680.65 455.99 674.62 447.42 667.55 438.99 659.62 430.57 651.74 422.29 645.39 413.88 640.79 405.31 638.63 396.75 639.76 387.97 643.8 378.95 650.49 369.94 659.62 360.92 669.66 351.94 679.55 343 688.85 334.17 696.03 325.53 700.37 317 701.97 308.75 700.08 300.86 694.89 293.15 687.08 285.89 676.83 279.14 664.9 272.6 652.18 266.6 639.2 261.15 626.65 255.8 615.19 250.9 605.09 246.4 596.56 241.74 589.92 237.24 584.89 232.77 581.25 227.79 579.16 222.59 577.89 217.06 577.07 210.78 576.9 204.07 576.53 196.96 575.65 189.26 574.66 181.39 572.76 173.55 569.85 165.72 566.44 158.39 561.94 151.86 556.41 146.03 550.33 141.36 543.35 137.99 535.61 135.53 527.46 134.25 518.74 134 509.58 134.06 500.21 134.57 490.57 135.23 480.76 135.24 470.88 134.86 460.93 133.96 451 132.05 441.05 129.7 431.16 127.17 421.36 124.33 411.57 122.09 402.09 120.76 392.91 120.18 383.7 120.99 374.75 123.21 366.03 126.39 357.21 130.76 348.53 136.03 339.96 141.54 331.2 147.35 322.43 153.12 313.62 158.28 304.54 163.01 295.32 167.22 285.92 170.53 276.24 173.44 266.36 176.09 256.31 178.26 246.07 180.6 235.76 183.34 225.5 186.26 215.32 189.96 205.43 194.53 196.01 199.72 187.09 205.9 178.95 212.99 171.79 220.74 165.49 229.27 160.37 238.42 156.53 248.01 153.58 257.99 151.8 268.24 151.1 278.63 150.8 289.12 151.12 299.61 151.78 310.07 151.99 320.47 151.94 330.77 151.38 341 149.65 351.15 147.1 361.22 143.73 371.23 139.2 381.22 134.16 391.19 128.92 401.14 123.46 411.11 118.6 421.08 114.81" stroke-dasharray="6 4" transform="rotate(4.04, 400, 400)" opacity="0.09"></path><path d="M416.42 125.52C425.89 122.74 434.97 121.64 443.6 122.27 452.19 124.22 460.27 127.78 467.78 132.7 475.17 138.36 481.9 144.77 487.91 151.59 493.74 158.17 498.81 164.56 503.13 170.51 509.09 177.74 518.6 187.48 523.23 190.5 527.13 191.83 531.65 193.22 537.11 194.86 543.98 196.49 552.21 198.71 561.92 201.63 573.12 204.95 585.62 209.13 599.07 214.17 612.99 219.76 626.8 226.18 639.72 233.35 651.13 241 660.22 249.26 666.3 258.01 669.35 267.1 668.89 276.53 665.03 286.18 658.94 296.03 650.87 305.98 641.95 315.95 634.04 326.01 627.78 336.03 624.3 345.94 624.83 355.89 629.21 365.7 637.26 375.31 648.5 384.94 661.38 394.37 674.31 403.53 685.87 412.69 694 421.35 697.71 429.49 697.04 437.61 691.6 445.19 682.14 452.2 669.97 459.19 656.12 465.61 642.04 471.49 629.13 477.36 618.27 482.74 610.14 487.68 604.39 495.15 609.39 509.77 615.99 517.73 620.57 523.86 623.88 530.56 625.41 537.99 625.37 546.4 622.98 555.7 618.33 565.9 611.86 576.99 603.48 588.78 593.59 601.06 582.59 613.54 570.77 625.86 558.53 637.55 546.02 648.29 533.6 657.54 521.48 664.8 509.6 670.05 498.21 672.79 487.35 672.86 476.85 670.85 466.82 666.56 457.21 660.39 447.88 653.54 438.83 646.15 429.98 639.01 421.27 633.43 412.63 629.55 404.03 627.94 395.46 629.35 386.86 633.37 378.22 639.78 369.58 648.4 361.1 657.87 352.82 667.25 344.56 676.2 336.53 683.32 328.8 687.95 321.13 690.18 313.82 689.25 306.92 685.25 300.12 678.76 293.77 669.84 287.89 659.1 282.09 647.32 276.74 634.95 271.81 622.62 266.82 610.94 262.12 600.23 257.62 590.75 252.81 582.86 247.99 576.41 243.04 571.3 237.51 567.7 231.67 565.07 225.46 563.11 218.57 562.02 211.32 561.04 203.78 559.89 195.84 558.91 187.9 557.35 180.17 555.06 172.65 552.51 165.79 549.05 159.83 544.7 154.66 539.94 150.68 534.31 147.95 527.9 146.06 521.15 145.26 513.74 145.35 505.79 145.64 497.63 146.26 489.06 146.92 480.19 146.89 471.23 146.42 462.07 145.41 452.77 143.4 443.45 140.96 434.04 138.34 424.6 135.4 415.15 133.03 405.87 131.54 396.78 130.74 387.65 131.29 378.67 133.23 369.79 136.13 360.84 140.25 351.93 145.33 343.03 150.76 333.98 156.59 324.87 162.52 315.66 167.95 306.26 173.04 296.72 177.66 287.03 181.41 277.17 184.69 267.19 187.61 257.15 189.91 247.07 192.2 237.07 194.67 227.27 197.11 217.7 200.12 208.58 203.82 200.07 207.96 192.14 212.99 185.08 218.88 179.04 225.37 173.82 232.69 169.74 240.71 166.84 249.22 164.68 258.27 163.53 267.71 163.25 277.44 163.2 287.39 163.57 297.45 164.11 307.61 164.09 317.79 163.73 327.92 162.81 338.06 160.74 348.12 157.9 358.08 154.29 368.02 149.65 377.87 144.57 387.59 139.37 397.32 134.01 406.94 129.25 416.41 125.52" stroke-dasharray="2 5" transform="rotate(8.08, 400, 400)" opacity="0.13"></path><path d="M408.63 136.23C417.54 133.48 425.97 132.3 433.89 132.76 441.77 134.47 449.1 137.73 455.83 142.32 462.48 147.67 468.5 153.83 473.89 160.48 479.2 167.03 483.92 173.51 488.09 179.69 494.28 187.5 506.14 198.78 512.9 202.5 518.46 204.18 524.81 205.77 532.18 207.44 540.82 208.91 550.65 210.79 561.66 213.19 573.69 215.8 586.48 219.12 599.65 223.19 612.67 227.68 625.01 232.95 635.99 238.93 645.15 245.35 651.85 252.41 655.59 260.01 656.61 267.96 654.55 276.32 649.7 284.99 643.25 293.88 635.46 302.97 627.35 312.16 620.59 321.48 615.63 330.82 613.39 340.1 614.85 349.44 619.75 358.68 627.87 367.75 638.73 376.85 650.96 385.76 663.14 394.42 674.09 403.08 681.96 411.27 685.86 418.98 685.83 426.67 681.43 433.88 673.22 440.6 662.33 447.32 649.54 453.59 636.11 459.43 623.31 465.34 611.95 470.91 602.77 476.22 596.38 481.75 592.7 487.18 591.48 492.64 592.74 498.55 595.49 504.71 598.99 511.27 603.14 518.53 606.71 526.4 609.13 534.95 610.56 544.32 610.13 554.42 607.73 565.18 603.77 576.52 597.92 588.25 590.45 600.11 581.75 611.84 571.92 623.07 561.31 633.39 550.14 642.58 538.67 650.14 527.16 655.71 515.61 659.39 504.28 660.74 493.29 659.71 482.48 656.96 472.07 652.29 462.06 646.14 452.24 639.62 442.77 632.82 433.6 626.42 424.55 621.6 415.71 618.41 407.07 617.31 398.46 618.95 389.99 622.94 381.64 629.06 373.29 637.2 365.24 646.1 357.52 654.97 349.8 663.55 342.41 670.56 335.39 675.4 328.4 678.16 321.79 678.09 315.6 675.19 309.43 669.97 303.66 662.37 298.3 652.88 292.9 642.18 287.83 630.62 283.04 618.75 278.04 607.17 273.19 596.16 268.38 586.06 263.15 577.19 257.79 569.54 252.2 563.11 246.03 558.08 239.53 554.05 232.68 550.82 225.28 548.57 217.63 546.68 209.84 544.9 201.85 543.52 194.03 541.85 186.61 539.72 179.57 537.55 173.31 534.71 168.04 531.13 161.95 525.02 156.69 508.68 156.89 498.7 157.34 491.66 158.02 484.12 158.65 476.18 158.53 468.14 157.96 459.77 156.83 451.14 154.73 442.48 152.21 433.61 149.5 424.56 146.5 415.5 144.01 406.48 142.36 397.52 141.36 388.54 141.65 379.57 143.28 370.62 145.88 361.62 149.7 352.57 154.53 343.47 159.82 334.27 165.6 324.98 171.6 315.57 177.25 306.06 182.66 296.43 187.68 286.72 191.89 276.95 195.61 267.15 198.92 257.42 201.52 247.79 203.95 238.36 206.38 229.27 208.57 220.55 211.13 212.37 214.17 204.91 217.47 198.07 221.49 192.13 226.27 187.2 231.54 183.03 237.61 179.91 244.4 177.83 251.68 176.33 259.58 175.66 267.96 175.68 276.7 175.74 285.78 176.05 295.08 176.4 304.58 176.09 314.19 175.38 323.82 174.08 333.54 171.68 343.22 168.56 352.79 164.75 362.41 160.02 371.9 154.94 381.21 149.79 390.55 144.54 399.7 139.89 408.62 136.23" stroke-dasharray="7 9" transform="rotate(12.12, 400, 400)" opacity="0.16"></path><path d="M399.19 146.94C407.52 144.22 415.37 142.97 422.72 143.27 430.04 144.74 436.83 147.69 443.09 151.94 449.31 156.96 455.02 162.83 460.24 169.26 465.5 175.71 470.36 182.21 474.91 188.53 479.69 194.22 484.38 199.45 489.15 204.13 494.45 207.94 500.14 211.23 506.4 214.08 513.55 216.21 521.53 218.14 530.47 220.01 540.38 221.54 551.22 223.3 562.85 225.4 575 227.54 587.4 230.24 599.63 233.54 611.24 237.13 621.73 241.39 630.53 246.31 637.41 251.59 641.82 257.5 643.47 263.96 642.78 270.74 639.52 277.98 634.05 285.59 627.56 293.43 620.29 301.54 613.14 309.83 607.56 318.26 603.86 326.79 602.77 335.34 605.04 343.95 610.38 352.53 618.48 361.01 628.94 369.51 640.52 377.87 651.97 386.05 662.32 394.23 669.9 402.02 673.94 409.4 674.49 416.77 671.05 423.76 664.04 430.37 654.41 437.01 642.75 443.33 630.13 449.36 617.68 455.51 606.12 461.47 596.2 467.34 588.56 473.47 583.25 479.66 580.23 486.02 579.63 492.82 580.69 499.98 582.86 507.57 586.1 515.78 589.33 524.55 591.99 533.91 594.24 543.86 595.13 554.35 594.46 565.25 592.6 576.42 589.03 587.68 583.88 598.75 577.56 609.42 569.94 619.34 561.31 628.14 551.95 635.72 541.99 641.63 531.67 645.6 521.08 647.85 510.44 648.01 499.9 646.09 489.37 642.79 479.07 637.93 469.07 631.93 459.18 625.83 449.59 619.65 440.33 614 431.15 609.91 422.25 607.36 413.62 606.72 405.03 608.57 396.67 612.52 388.55 618.35 380.42 626 372.7 634.36 365.38 642.71 358.04 650.9 351.09 657.76 344.55 662.74 337.97 665.94 331.79 666.61 325.99 664.72 320.13 660.7 314.62 654.38 309.41 646.17 304.05 636.64 298.91 626.05 293.92 614.88 288.63 603.66 283.35 592.67 278 582.25 272.2 572.74 266.19 564.18 259.92 556.65 253.12 550.34 246.03 544.99 238.68 540.49 230.95 536.98 223.1 533.99 215.27 531.32 207.45 529.2 199.98 527.04 193.05 524.67 183.86 521.13 171.59 511.36 168.83 504.84 167.99 500.12 167.97 494.76 168.59 488.81 169.16 482.71 169.83 476.08 170.39 468.97 170.17 461.78 169.47 454.17 168.22 446.2 166.03 438.2 163.44 429.87 160.67 421.25 157.6 412.63 155.03 403.93 153.23 395.17 152.04 386.41 152.07 377.57 153.39 368.67 155.66 359.74 159.14 350.71 163.67 341.6 168.74 332.43 174.4 323.16 180.39 313.81 186.18 304.43 191.84 294.98 197.21 285.53 201.87 276.13 206.08 266.8 209.84 257.65 212.87 248.71 215.61 240.09 218.2 231.93 220.39 224.2 222.75 217.1 225.4 210.76 229.72 202.62 241.85 191.96 249.89 189.43 255.91 188.44 262.56 188.1 269.75 188.28 277.3 188.33 285.29 188.5 293.59 188.57 302.13 187.94 310.88 186.85 319.74 185.18 328.73 182.47 337.75 179.09 346.72 175.11 355.75 170.32 364.68 165.25 373.45 160.17 382.24 155.05 390.84 150.53 399.18 146.95" stroke-dasharray="5 9" transform="rotate(16.16, 400, 400)" opacity="0.20"></path><path d="M389.9 157.66C397.68 154.97 405.04 153.66 411.97 153.81 418.9 155.04 425.39 157.68 431.48 161.58 437.58 166.25 443.32 171.8 448.75 177.96 454.31 184.24 459.68 190.68 464.98 197.07 470.58 202.96 476.32 208.51 482.33 213.6 488.9 217.91 495.97 221.74 503.67 225.12 512.12 227.78 521.32 230.15 531.27 232.36 541.87 234.13 553.05 235.97 564.6 238 576.2 239.92 587.61 242.23 598.38 245.01 608.2 247.92 616.62 251.4 623.18 255.45 629.03 262.19 626.02 278.8 618.23 288.45 612 295.22 605.44 302.32 599.35 309.67 594.97 317.15 592.48 324.8 592.42 332.56 595.41 340.39 601.07 348.26 609.1 356.11 619.14 363.98 630.06 371.81 640.81 379.54 650.56 387.27 657.84 394.71 661.98 401.86 663.03 409.01 660.46 415.9 654.58 422.53 646.2 429.22 635.72 435.72 624.03 442.08 612.13 448.58 600.66 455.04 590.31 461.53 581.73 468.3 575.08 475.23 570.45 482.41 568.05 490 567.37 497.97 567.99 506.36 569.96 515.23 572.35 524.56 574.68 534.34 577.08 544.48 578.65 554.94 579.12 565.56 578.79 576.18 577.05 586.62 573.91 596.61 569.77 606 564.33 614.45 557.78 621.67 550.46 627.64 542.32 631.99 533.6 634.5 524.45 635.51 514.99 634.67 505.41 632.07 495.68 628.41 485.99 623.52 476.45 617.78 466.91 612.17 457.58 606.66 448.51 601.75 439.48 598.36 430.72 596.41 422.23 596.19 413.77 598.21 405.57 602.09 397.64 607.63 389.71 614.82 382.22 622.64 375.14 630.49 368.04 638.27 361.34 644.92 355.01 649.97 348.63 653.52 342.6 654.83 336.88 653.84 331.05 650.93 325.48 645.85 320.1 638.91 314.52 630.61 309.05 621.1 303.6 610.81 297.83 600.21 291.98 589.53 285.98 579.11 279.56 569.27 272.92 560.11 266.03 551.77 258.73 544.41 251.23 537.92 243.58 532.23 235.73 527.48 227.92 523.33 220.31 519.62 212.88 516.55 205.94 513.64 199.67 510.73 191.63 506.69 181.65 497.12 179.79 491.18 179.53 484.61 181.38 468.59 182.13 459.22 181.79 452.74 180.95 445.81 179.57 438.44 177.31 431.06 174.66 423.28 171.84 415.12 168.73 406.97 166.08 398.65 164.15 390.19 162.78 381.74 162.56 373.16 163.57 364.46 165.48 355.75 168.6 346.93 172.78 338.01 177.56 329.09 183.01 320.09 188.9 311.05 194.74 302.05 200.57 293.05 206.23 284.13 211.3 275.35 215.97 266.74 220.23 258.4 223.76 250.35 226.94 242.72 229.86 235.61 233.48 225.98 240.96 211.25 245.53 206.44 250.86 203.23 264.94 200.85 273.67 200.97 279.99 200.92 286.78 200.85 293.95 200.6 301.37 199.6 309.08 198.13 316.98 196.09 325.03 193.08 333.19 189.48 341.37 185.36 349.64 180.53 357.86 175.5 365.97 170.53 374.12 165.54 382.11 161.15 389.89 157.66" stroke-dasharray="6 1" transform="rotate(20.200000000000003, 400, 400)" opacity="0.24"></path><path d="M382.53 168.37C389.81 165.72 396.79 164.37 403.47 164.36 410.15 165.37 416.55 167.71 422.7 171.24 428.9 175.55 434.92 180.74 440.83 186.58 446.89 192.64 452.97 198.95 459.15 205.31 465.66 211.32 472.45 217.1 479.61 222.52 487.27 227.28 495.44 231.6 504.19 235.5 513.47 238.71 523.32 241.6 533.66 244.24 544.29 246.39 555.15 248.49 565.97 250.65 576.48 252.58 586.41 254.75 595.38 257.24 606.35 261.2 616.86 271.64 615.63 278.21 612.67 282.93 608.13 288.13 602.45 293.74 596.71 299.51 591.01 305.65 586.03 312.1 582.83 318.65 581.47 325.45 582.34 332.42 585.92 339.45 591.82 346.62 599.73 353.86 609.31 361.12 619.59 368.42 629.64 375.74 638.81 383.06 645.78 390.21 649.97 397.2 651.44 404.19 649.66 411.05 644.85 417.79 637.67 424.59 628.38 431.33 617.73 438.05 606.56 444.92 595.41 451.86 584.94 458.93 575.75 466.25 568.08 473.8 562.1 481.63 558.09 489.78 555.7 498.29 554.7 507.15 555.17 516.33 556.37 525.85 557.9 535.64 559.89 545.58 561.51 555.61 562.47 565.57 563.06 575.31 562.58 584.66 560.97 593.35 558.62 601.32 555.08 608.24 550.46 613.88 545.14 618.34 538.9 621.24 531.94 622.49 524.5 622.45 516.55 620.84 508.26 617.75 499.74 613.91 491.06 609.13 482.35 603.77 473.55 598.7 464.83 593.86 456.24 589.68 447.65 586.94 439.24 585.54 431.05 585.7 422.87 587.86 414.9 591.66 407.18 596.92 399.46 603.65 392.13 610.95 385.19 618.29 378.21 625.65 371.59 632.07 365.28 637.12 358.91 640.92 352.8 642.77 346.93 642.58 340.92 640.67 335.06 636.76 329.31 631.05 323.34 624.01 317.37 615.66 311.37 606.39 305.05 596.6 298.6 586.48 291.99 576.36 285.03 566.51 277.88 557.09 270.56 548.23 262.97 540.13 255.29 532.73 247.6 526.05 239.89 520.18 232.38 514.93 225.21 510.17 218.37 506.07 212.14 502.25 206.66 498.58 199.87 493.64 192.15 483.32 191.1 477.48 191.3 471.26 193.3 456.5 193.87 447.9 193.38 441.98 192.39 435.59 190.89 428.76 188.55 421.92 185.86 414.65 183 406.98 179.87 399.31 177.17 391.42 175.13 383.37 173.59 375.32 173.13 367.12 173.82 358.78 175.37 350.46 178.1 342.03 181.89 333.53 186.32 325.06 191.49 316.56 197.19 308.07 202.96 299.67 208.87 291.36 214.71 283.2 220.11 275.24 225.21 267.53 229.94 260.18 234 253.15 237.7 246.6 241.08 240.62 245.22 232.64 252.83 221 256.91 217.44 261.36 215.16 272.83 213.62 279.98 213.66 285.16 213.41 290.8 213.03 296.86 212.41 303.13 211.03 309.74 209.18 316.62 206.8 323.64 203.53 330.84 199.73 338.16 195.51 345.55 190.67 352.99 185.71 360.41 180.85 367.86 176.02 375.25 171.77 382.52 168.38" stroke-dasharray="11 10" transform="rotate(24.24, 400, 400)" opacity="0.28"></path><path d="M378.5 179.09C385.34 176.48 392.04 175.09 398.58 174.94 405.14 175.73 411.58 177.77 417.93 180.94 424.35 184.86 430.76 189.67 437.21 195.16 443.83 200.93 450.61 207.04 457.61 213.29 464.9 219.33 472.53 225.24 480.54 230.9 488.93 236.02 497.76 240.78 507.01 245.16 516.56 248.91 526.44 252.33 536.52 255.47 546.58 258.1 556.53 260.59 566.11 263.03 575.1 265.16 583.25 267.41 590.25 269.85 600.72 278.04 594.51 294.38 586.84 301.4 581.79 306.33 577.07 311.63 573.23 317.27 571.16 322.98 570.83 328.99 572.51 335.24 576.58 341.54 582.63 348.04 590.35 354.71 599.46 361.4 609.1 368.22 618.48 375.17 627.07 382.11 633.72 389.01 637.91 395.87 639.74 402.74 638.67 409.59 634.84 416.43 628.81 423.34 620.72 430.3 611.16 437.34 600.86 444.5 590.26 451.82 579.94 459.32 570.47 467.01 562.1 474.95 555.08 483.16 549.69 491.59 545.77 500.31 543.2 509.27 542.08 518.41 541.87 527.73 542.26 537.13 543.39 546.51 544.53 555.78 545.4 564.77 546.27 573.39 546.44 581.45 545.79 588.72 543.65 597.91 533.75 608.64 526.24 609.63 520.52 608.77 514.18 606.59 507.35 603.22 500.25 599.36 492.82 594.81 485.19 589.9 477.42 585.42 469.57 581.26 461.7 577.78 453.8 575.67 445.95 574.76 438.2 575.26 430.46 577.53 422.83 581.23 415.35 586.21 407.87 592.49 400.71 599.28 393.83 606.12 386.93 613.05 380.29 619.2 373.88 624.19 367.4 628.16 361.1 630.45 354.94 630.94 348.64 629.93 342.4 627.09 336.19 622.56 329.78 616.75 323.32 609.62 316.77 601.45 309.97 592.64 303.03 583.3 295.96 573.72 288.65 564.18 281.22 554.8 273.72 545.76 266.1 537.23 258.52 529.22 251.07 521.79 243.76 515.03 236.78 508.82 230.28 503.11 224.2 498 218.8 493.25 214.2 488.75 208.7 482.68 203.11 470.93 202.74 464.8 203.29 458.53 205.24 444.29 205.58 436.18 204.93 430.63 203.8 424.67 202.18 418.29 199.77 411.9 197.04 405.1 194.17 397.91 191.03 390.72 188.29 383.32 186.16 375.74 184.48 368.18 183.78 360.47 184.17 352.65 185.36 344.86 187.68 336.99 191.04 329.09 195.06 321.25 199.88 313.43 205.3 305.69 210.91 298.09 216.77 290.63 222.69 283.4 228.31 276.39 233.75 269.71 238.89 263.43 243.47 257.47 247.69 252.02 251.59 247.14 260.67 236.27 272.94 227.63 277.59 226.93 282.69 226.46 295.2 225.35 302.62 223.97 307.85 222.21 313.44 220 319.35 217.29 325.36 213.79 331.63 209.85 338.1 205.55 344.62 200.74 351.29 195.87 358.04 191.14 364.82 186.47 371.64 182.38 378.49 179.09" stroke-dasharray="8 1" transform="rotate(28.28, 400, 400)" opacity="0.32"></path><path d="M378.55 189.8C385.04 187.26 391.52 185.82 397.99 185.55 404.49 186.13 411.01 187.87 417.58 190.69 424.23 194.22 431 198.62 437.91 203.72 444.98 209.15 452.28 214.99 459.84 221.06 467.62 227.02 475.72 232.96 484.15 238.76 492.79 244.14 501.73 249.24 510.91 254.04 520.16 258.28 529.49 262.21 538.73 265.86 547.72 269 556.32 271.96 564.29 274.81 581.25 282.3 588.58 294.52 584.54 299.53 578.59 304.93 565.52 317.67 560.96 324.96 559.95 329.99 560.54 335.33 562.92 340.97 567.37 346.63 573.48 352.55 580.96 358.72 589.58 364.89 598.59 371.28 607.31 377.89 615.34 384.5 621.65 391.17 625.82 397.89 627.94 404.63 627.49 411.44 624.55 418.34 619.61 425.3 612.68 432.38 604.25 439.6 594.93 446.92 585.06 454.42 575.14 462.13 565.69 469.96 556.96 478.02 549.22 486.29 542.77 494.68 537.56 503.25 533.56 511.96 530.91 520.7 529.23 529.46 528.3 538.15 528.26 546.66 528.51 554.9 528.82 562.71 529.52 573.39 528.35 589.56 525.85 594.33 522.01 596.46 510.04 593.32 502.21 588.58 496.53 584.84 490.42 580.64 483.96 576.24 477.36 572.37 470.52 568.88 463.53 566.07 456.47 564.52 449.33 564.07 442.15 564.86 434.96 567.21 427.77 570.8 420.6 575.49 413.43 581.35 406.44 587.64 399.64 593.99 392.82 600.48 386.15 606.33 379.61 611.2 373.01 615.27 366.49 617.9 360.02 618.95 353.44 618.73 346.86 616.86 340.25 613.43 333.48 608.8 326.64 602.88 319.7 595.87 312.6 588.15 305.39 579.75 298.11 570.93 290.71 561.95 283.28 552.91 275.89 544 268.53 535.37 261.34 527.08 254.4 519.2 247.73 511.81 241.49 504.89 235.81 498.41 230.61 492.44 226.12 486.84 222.43 481.55 218.19 474.3 214.51 460.77 214.68 454.08 215.44 447.45 217.19 433.14 217.24 425.28 216.42 419.95 215.15 414.27 213.42 408.25 210.96 402.22 208.21 395.84 205.34 389.12 202.21 382.39 199.45 375.5 197.25 368.46 195.44 361.45 194.53 354.32 194.62 347.13 195.45 339.97 197.35 332.79 200.26 325.63 203.84 318.56 208.24 311.56 213.29 304.7 218.63 297.99 224.33 291.49 230.2 285.27 235.92 279.28 241.57 273.64 247.03 268.44 254.4 261.33 266.87 250.25 272.11 246.4 280.77 241.99 293.96 239.24 299.15 238.65 304.73 237.21 317.84 231.83 325.31 227.56 330.47 223.87 335.93 219.82 341.65 215.49 347.4 210.74 353.38 205.98 359.55 201.4 365.72 196.91 372.06 192.98 378.55 189.8" stroke-dasharray="9 10" transform="rotate(32.32, 400, 400)" opacity="0.35"></path><path d="M382.7 200.51C388.88 198.03 395.18 196.58 401.59 196.18 408.01 196.57 414.58 198.02 421.28 200.48 428.06 203.62 435.02 207.6 442.18 212.29 449.45 217.34 456.97 222.84 464.73 228.64 472.61 234.44 480.74 240.31 489.07 246.14 497.46 251.67 505.99 257.01 514.55 262.11 522.99 266.77 531.28 271.15 539.26 275.28 546.82 278.94 553.8 282.4 560 285.7 571.6 294.21 573.04 306.87 568.46 311.62 562.85 316.59 552.2 328.1 549.24 334.68 549.19 339.19 550.59 344.03 553.55 349.17 558.26 354.32 564.36 359.77 571.55 365.5 579.68 371.24 588.06 377.26 596.14 383.56 603.62 389.85 609.59 396.28 613.69 402.84 616.03 409.41 616.12 416.12 613.99 422.97 610.05 429.86 604.25 436.92 596.96 444.14 588.7 451.42 579.69 458.89 570.38 466.53 561.23 474.24 552.45 482.12 544.33 490.12 537.15 498.16 530.95 506.27 525.77 514.39 521.75 522.43 518.67 530.35 516.38 538.06 515.02 545.49 514.13 552.53 513.53 559.04 510.2 578.53 499.04 578.69 493.02 573.92 488.61 570.42 483.7 566.64 478.37 562.81 472.9 559.55 467.09 556.72 461.01 554.53 454.85 553.51 448.48 553.47 441.95 554.5 435.4 556.9 428.71 560.37 421.92 564.78 415.13 570.21 408.39 576.02 401.72 581.9 395.03 587.94 388.39 593.46 381.78 598.17 375.13 602.26 368.48 605.12 361.82 606.64 355.08 607.08 348.3 606.06 341.46 603.64 334.52 600.13 327.51 595.37 320.44 589.54 313.29 582.96 306.1 575.61 298.9 567.72 291.71 559.51 284.59 551.08 277.62 542.57 270.79 534.16 264.23 525.9 258.04 517.88 252.18 510.19 246.83 502.84 242.09 495.84 237.83 489.24 234.27 482.97 231.46 477.01 228.4 468.71 226.34 453.37 226.89 446.01 227.73 438.86 229.1 424.1 228.85 416.3 227.86 411.05 226.45 405.56 224.61 399.81 222.12 394.06 219.36 388.05 216.5 381.77 213.41 375.49 210.64 369.11 208.39 362.65 206.47 356.2 205.37 349.71 205.19 343.21 205.67 336.76 207.15 330.33 209.59 324 212.69 317.74 216.62 311.63 221.23 305.71 226.21 299.93 231.63 294.41 237.32 289.2 243 284.2 248.72 279.57 254.36 275.37 262.25 269.67 276.19 261.06 282.22 258.17 292.13 254.73 305.93 251.83 310.82 250.74 315.88 248.74 327.5 242.26 334.11 237.6 338.64 233.77 343.48 229.64 348.61 225.32 353.76 220.66 359.18 216.04 364.87 211.64 370.56 207.34 376.5 203.57 382.69 200.52" stroke-dasharray="6 9" transform="rotate(36.36, 400, 400)" opacity="0.39"></path><path d="M390.13 211.23C396.07 208.82 402.18 207.35 408.46 206.85 414.75 207.05 421.24 208.23 427.92 210.35 441.39 216.42 455.73 225.35 470.76 236.1 485.91 247.18 501.45 258.51 516.66 269.41 530.89 278.92 543.4 287.57 552.97 295.45 559.66 301.91 562.17 308.14 560.23 314.51 556.1 320.19 549.58 326.6 542.67 333.95 539.02 341.14 539.15 349.51 544.37 359.09 549.26 363.87 555.26 368.95 562.14 374.34 569.74 379.72 577.51 385.41 584.98 391.4 591.91 397.4 597.53 403.57 601.53 409.9 604.04 416.24 604.58 422.75 603.17 429.42 595.64 442.83 582.18 456.94 565.5 471.54 548.43 486.19 532.67 501.12 519.69 515.79 510.46 529.81 504.28 542.69 500.23 553.5 497.65 565.15 489.44 567.54 480.67 559.34 473.6 553.25 464.67 547.34 454.24 543.18 448.94 542.63 443.33 542.94 437.45 544.18 431.55 546.61 425.42 549.94 419.07 554.07 412.71 559.09 406.3 564.43 399.86 569.84 393.41 575.44 386.91 580.61 380.37 585.12 367.24 592.53 353.84 595.34 340.24 593.2 326.53 587.27 312.67 577.07 299.01 563.85 285.76 549.01 273.34 533.17 262.42 517.4 252.96 502.27 245.79 488.06 241.36 474.96 238.57 462.97 238.07 451.75 239.3 441.01 240.08 430.87 240.71 420.64 240.39 410.08 239.23 404.84 237.68 399.47 235.76 393.93 233.24 388.41 230.5 382.71 227.67 376.85 224.62 370.98 221.88 365.09 219.59 359.21 217.59 353.33 216.32 347.49 215.88 341.7 216.85 330.24 221.48 319.25 229.21 309.11 238.59 299.46 249.51 291.03 260.96 284.18 271.66 278.01 281.74 273.52 291 270.71 298.71 268.09 305.89 266.52 312.9 265.53 319.02 263.31 325.65 260.53 333.11 256.72 340.31 250.61 348.64 243.24 358.15 235.05 362.88 230.52 367.91 226.07 373.24 221.84 378.57 217.75 384.19 214.16 390.12 211.23" stroke-dasharray="3 10" transform="rotate(40.400000000000006, 400, 400)" opacity="0.43"></path><path d="M399.45 221.94C410.82 217.85 423 217.32 435.83 220.28 448.75 225.55 462.32 233.57 476.24 243.48 489.97 253.98 503.55 265.03 516.19 275.97 527.6 285.93 536.91 295.26 543.21 303.91 547.07 311.3 547.37 318.35 544.22 325.33 539.97 331.55 534.39 338.21 529.22 345.56 527.46 352.62 529.23 360.66 535.38 369.77 546.34 378.8 559.99 388.99 573.81 400.39 585.83 411.79 592.27 423.91 592.09 436.59 586.37 449.31 575.09 462.57 560.34 476.1 544.47 489.48 528.88 502.8 515.08 515.48 504.06 527.34 495.65 537.76 489.39 545.99 483.89 554.17 474.12 552.77 466.5 544.91 460.67 539.74 453.16 535.02 444.1 532.01 434.87 532.74 424.31 536.57 412.58 543.35 400.84 553.22 388.59 563.33 376 572.05 363.43 579.39 350.51 582.89 337.45 582.14 324.51 578.13 311.63 570.14 299.24 559.12 287.51 546.28 276.88 531.99 267.93 517.24 260.39 502.58 255.05 488.38 252.14 474.97 250.43 462.34 250.51 450.42 251.84 439.1 252.41 428.31 252.63 417.7 251.84 407.11 248.6 396.67 244.06 385.96 238.83 375 232.82 364.04 228.49 353.33 226.71 343.09 226.99 332.96 230.65 323.52 237.3 315.06 245.69 306.96 255.87 300.09 266.93 294.67 277.74 289.65 288.31 286.03 298.3 283.72 307.04 281.25 315.21 279.45 323.05 277.88 329.93 274.98 337.01 271.42 344.59 266.89 351.78 260.34 359.85 252.79 368.94 244.69 377.92 235.84 388.06 227.9 399.44 221.94" stroke-dasharray="4 9" transform="rotate(44.44, 400, 400)" opacity="0.47"></path><path d="M408.87 232.65C419.73 228.68 431.23 227.91 443.18 230.29 455.14 234.77 467.42 241.86 479.62 250.86 491.45 260.61 502.63 271.17 512.47 281.9 521.05 292.02 527.43 301.76 530.98 310.98 532.71 319.16 531.6 326.98 528 334.61 524.19 341.5 519.9 348.6 516.56 356.14 516.55 363.35 519.72 371.3 526.53 380.11 537.25 388.82 549.99 398.54 562.65 409.32 573.76 420.11 580.1 431.49 580.77 443.27 576.68 455.05 567.48 467.14 554.76 479.22 540.44 491.04 525.59 502.46 511.62 512.97 499.52 522.6 489.41 530.64 481.23 536.53 472.7 541.81 459.69 537.87 452.14 530.74 446.81 526.55 440.13 522.98 432.06 521.02 423.9 522.35 414.42 526.28 403.69 532.64 392.97 541.66 381.6 550.87 369.85 558.97 358.17 566.13 346.19 570.11 334.2 570.48 322.5 568.16 311.08 562.22 300.38 553.36 290.47 542.65 281.8 530.2 274.85 516.89 269.14 503.26 265.41 489.64 263.73 476.47 262.8 463.73 263.22 451.55 264.45 439.99 264.69 428.82 264.43 418.01 263.19 407.48 259.72 397.08 255.14 386.73 250 376.48 244.15 366.22 239.79 356.51 237.68 347.5 237.33 338.56 240.05 330.46 245.58 323.39 252.86 316.55 262.08 310.87 272.46 306.46 283 302.2 293.68 299.05 304.07 296.85 313.59 294.23 322.63 291.97 331.27 289.71 339.05 286.09 346.82 281.81 354.81 276.65 362.35 269.79 370.5 262.17 379.44 254.24 388.23 245.79 398.01 238.29 408.87 232.65" stroke-dasharray="8 5" transform="rotate(48.48, 400, 400)" opacity="0.51"></path><path d="M416.6 243.37C426.86 239.53 437.47 238.55 448.23 240.4 458.91 244.11 469.54 250.26 479.7 258.28 489.39 267.16 498.09 277.02 505.25 287.3 511.3 297.29 515.25 307.15 516.78 316.67 517.12 325.43 515.36 333.86 511.99 342.04 509.07 349.58 506.28 357.18 504.73 364.99 506.27 372.48 510.58 380.47 517.82 389.08 528.17 397.59 539.95 406.89 551.48 417.02 561.7 427.14 567.86 437.65 569.21 448.34 566.56 458.98 559.31 469.67 548.64 480.08 536.11 490.17 522.46 499.61 508.94 507.94 496.45 515.45 485.31 521.36 475.71 525.27 467.85 528 461.14 528.57 455.1 527 450.06 524.8 444.89 521.22 439.21 516.9 433.77 513.71 427.39 511.23 419.93 510.21 412.45 512.03 403.84 515.99 394.1 521.92 384.37 530.12 374.06 538.47 363.44 545.91 352.92 552.76 342.25 557.02 331.74 558.28 321.59 557.37 311.93 553.27 303.16 546.45 295.15 537.89 288.43 527.45 283.35 515.86 279.24 503.68 276.81 491.14 276.03 478.71 275.59 466.41 276.09 454.48 277.03 443.06 276.86 431.9 276.11 421.14 274.43 410.82 270.77 400.61 266.19 390.67 261.17 381.08 255.51 371.49 251.17 362.66 248.79 354.67 247.89 346.72 249.73 339.69 254.14 333.68 260.23 327.76 268.31 322.89 277.74 319.07 287.66 315.19 298.05 312.14 308.45 309.74 318.36 306.75 327.97 303.9 337.24 300.88 345.82 296.58 354.27 291.65 362.74 286 370.79 278.95 379.19 271.38 388.09 263.7 396.85 255.71 406.34 248.67 416.6 243.37" stroke-dasharray="3 7" transform="rotate(52.52, 400, 400)" opacity="0.54"></path><path d="M421.16 254.08C430.74 250.4 440.3 249.25 449.66 250.6 458.92 253.58 467.76 258.8 475.83 265.8 483.45 273.72 489.89 282.72 494.76 292.32 498.8 301.9 501.01 311.58 501.28 321.1 500.97 330.11 499.23 338.9 496.61 347.45 494.86 355.49 493.64 363.49 493.76 371.54 496.62 379.31 501.77 387.37 509.22 395.8 519.06 404.15 529.89 413.03 540.31 422.45 549.65 431.87 555.56 441.4 557.44 450.87 556.01 460.28 550.55 469.46 541.88 478.14 531.28 486.49 519.17 494.01 506.61 500.35 494.42 506 482.94 510.12 472.53 512.48 463.4 514.01 455.28 513.79 447.95 511.93 441.55 509.86 435.36 506.85 429.08 503.45 423.14 501.25 416.68 499.78 409.52 499.57 402.4 501.77 394.44 505.71 385.64 511.21 376.83 518.61 367.66 526.11 358.35 532.88 349.15 539.33 340 543.69 331.19 545.6 322.73 545.81 314.92 543.3 308.08 538.34 301.89 531.81 296.93 523.42 293.43 513.72 290.59 503.28 289.11 492.2 288.87 480.93 288.63 469.57 288.98 458.33 289.51 447.47 288.86 436.71 287.61 426.33 285.54 416.42 281.74 406.59 277.19 397.15 272.33 388.2 266.9 379.25 262.64 371.17 260.06 364 258.69 356.82 259.71 350.57 263.04 345.26 267.91 339.93 274.74 335.5 283.01 331.9 291.99 328.09 301.71 324.86 311.71 322.03 321.56 318.54 331.33 315.03 340.88 311.28 349.97 306.38 358.9 300.94 367.73 294.94 376.22 287.84 384.85 280.42 393.7 273.09 402.44 265.59 411.59 259.04 421.16 254.08" stroke-dasharray="6 6" transform="rotate(56.56, 400, 400)" opacity="0.58"></path><path d="M421.7 264.8C430.48 261.29 438.92 260 446.86 260.9 454.69 263.2 461.83 267.52 468.02 273.5 473.85 280.38 478.46 288.4 481.64 297.12 484.3 306.04 485.48 315.23 485.26 324.44 484.92 333.39 483.74 342.22 482.2 350.87 481.77 359.16 482.06 367.37 483.64 375.52 487.53 383.44 493.27 391.49 500.71 399.69 509.95 407.81 519.79 416.22 529.15 424.89 537.6 433.55 543.21 442.07 545.47 450.29 545.06 458.43 541.18 466.13 534.4 473.15 525.76 479.89 515.42 485.71 504.23 490.35 492.91 494.48 481.75 497.24 471.2 498.51 461.43 499.28 452.44 498.69 444.18 496.89 436.68 495.19 429.56 492.9 422.64 490.46 416.07 489.19 409.34 488.62 402.29 489.09 395.32 491.59 387.86 495.44 379.9 500.5 371.95 507.13 363.91 513.81 355.95 519.89 348.09 525.85 340.49 530.15 333.38 532.48 326.58 533.55 320.5 532.34 315.4 528.99 310.77 524.33 307.25 517.89 304.95 510.11 302.99 501.55 302.08 492.17 302.05 482.37 301.75 472.31 301.77 462.17 301.78 452.2 300.64 442.24 298.92 432.54 296.51 423.27 292.63 414.03 288.16 405.2 283.5 396.88 278.34 388.57 274.19 381.13 271.49 374.58 269.88 365.12 278.8 350.17 288.53 344.35 296.33 340.37 305.03 336.78 314.24 333.41 323.58 329.37 333.05 325.22 342.45 320.82 351.64 315.46 360.7 309.66 369.6 303.48 378.29 296.47 386.96 289.32 395.62 282.4 404.2 275.44 412.91 269.39 421.7 264.8" stroke-dasharray="7 4" transform="rotate(60.599999999999994, 400, 400)" opacity="0.62"></path><path d="M418.1 275.51C426.02 272.21 433.35 270.82 439.97 271.31 446.51 273 452.21 276.46 456.91 281.43 461.38 287.24 464.73 294.18 466.88 301.9 468.8 309.93 469.63 318.38 469.52 326.99 469.63 335.53 469.34 344.08 469.06 352.51 469.93 360.74 471.57 368.88 474.34 376.91 478.98 384.79 485.01 392.66 492.26 400.5 500.81 408.3 509.67 416.16 517.99 424.03 525.58 431.9 530.82 439.39 533.32 446.4 533.72 453.34 531.2 459.68 526.14 465.25 519.4 470.61 510.93 475.03 501.38 478.36 491.37 481.36 481.1 483.19 471.03 483.82 461.32 484.22 452.08 483.6 443.42 482.14 435.27 480.98 427.55 479.47 420.17 477.97 413.1 477.56 406.12 477.75 399.14 478.78 392.24 481.46 385.19 485.18 378 489.78 370.8 495.68 363.8 501.56 357.11 506.95 347.4 514.42 331.05 520.57 325.04 518.46 321.6 515.41 319.1 510.74 317.57 504.79 316.13 498.11 315.43 490.51 315.31 482.33 314.75 473.83 314.32 465.05 313.77 456.26 312.15 447.39 310.02 438.65 307.33 430.2 303.43 421.76 299.1 413.65 294.67 405.98 289.8 398.32 285.83 391.45 283.07 385.34 280.87 376.48 286.82 361.91 294.55 355.81 301 351.55 308.44 347.51 316.54 343.58 324.95 339.04 333.69 334.37 342.49 329.47 351.3 323.81 360.06 317.84 368.66 311.64 377.19 304.86 385.6 298.09 393.84 291.64 402.06 285.26 410.17 279.74 418.1 275.51" stroke-dasharray="2 10" transform="rotate(64.64, 400, 400)" opacity="0.66"></path><path d="M411.05 286.22C421.21 282.42 437.65 284.31 443.66 289.64 447.24 294.4 449.89 300.22 451.62 306.83 453.36 313.81 454.35 321.31 454.8 329.07 455.66 336.9 456.42 344.85 457.38 352.75 459.41 360.59 462.15 368.37 465.8 376.01 470.89 383.58 476.97 391.06 483.85 398.39 491.63 405.71 499.5 412.93 506.83 419.97 513.57 427 518.39 433.52 521 439.43 521.32 447.88 508.8 460.81 497.7 464.93 489.3 467.18 480.35 468.48 471.27 468.86 462.23 469.21 453.37 468.84 444.87 467.9 436.65 467.36 428.79 466.65 421.31 466.01 414.04 466.34 407 467.16 400.19 468.62 393.44 471.39 386.8 474.92 380.29 479.07 373.77 484.25 367.68 489.37 362.08 494.07 347.56 504.16 333.02 503.51 330.9 497.62 329.61 492.69 328.83 486.82 328.4 480.3 327.45 473.44 326.5 466.16 325.4 458.7 323.34 451.13 320.88 443.52 318 436.05 314.14 428.56 310 421.27 305.83 414.29 301.31 407.31 297.55 400.95 294.81 395.21 292.18 386.8 295.51 372.27 301.29 365.77 306.33 361.22 312.38 356.77 319.14 352.36 326.32 347.46 333.95 342.42 341.79 337.22 349.76 331.45 357.79 325.49 365.72 319.45 373.67 313.03 381.49 306.74 389.08 300.83 396.67 295.05 404.03 290.07 411.05 286.22" stroke-dasharray="0 3" transform="rotate(68.68, 400, 400)" opacity="0.70"></path><path d="M401.89 296.94C414.1 292 423.44 292.67 429.75 298.19 436.01 306.28 439.7 317.81 441.75 331.06 445.71 344.92 450.67 359.38 457.94 373.38 469.35 387.33 482.86 400.85 495.66 413.25 506.68 425.64 510.6 435.6 507.23 442.72 499.31 449.55 486.31 453.31 471.13 454.13 455.3 455.37 439.56 455.11 425.12 454.62 411.14 457.33 398.08 461.92 386.33 468.36 374.57 477.98 365.03 486.21 357.99 491.35 351 495.13 346.53 494.04 344.38 488.61 341.31 481.29 339.03 470.83 336.58 458.8 331.02 446.27 324.19 433.22 317 420.69 308.64 408.16 303.76 397.27 303.28 387.89 305.43 377.98 312.35 368.69 322.59 359.65 334.51 349.12 348.14 338.05 361.92 326.95 376.02 314.98 389.69 304.31 401.89 296.94" stroke-dasharray="7 4" transform="rotate(72.72, 400, 400)" opacity="0.73"></path><path d="M392.38 307.65C402.81 303.08 410.92 303.09 416.74 307.13 422.75 313.23 427.17 322.42 430.81 333.36 436.2 345.04 442.63 357.54 450.68 369.79 461.54 382.14 473.53 394.06 484.49 404.77 494.11 415.47 498.21 423.84 496.59 429.71 491.51 435.49 481.93 438.86 469.91 440.08 456.85 441.97 443.19 442.93 430.24 443.81 417.43 447.21 405.47 451.88 394.97 457.64 384.46 465.81 376.23 472.76 370.26 477.31 362.06 481.23 352.26 469.32 347.26 456.08 341.43 446.21 334.8 435.36 328.17 424.34 320.61 413.32 315.88 403.16 314.65 393.89 315.26 384.22 319.82 374.76 327.35 365.44 336.35 355.11 347.19 344.49 358.56 334.19 370.33 323.49 381.94 314.13 392.38 307.65" stroke-dasharray="5 11" transform="rotate(76.76, 400, 400)" opacity="0.77"></path><path d="M384.31 318.36C393.08 314.23 400.3 313.75 406.02 316.49 412.04 320.8 417.26 327.75 422.21 336.34 428.55 345.66 435.75 355.89 443.9 366.11 453.81 376.5 464.15 386.6 473.33 395.65 483.54 408.24 479.17 423.62 467.01 427.12 457.04 429.68 446.01 431.66 435.14 433.57 424.2 437.35 413.78 441.88 404.57 446.93 395.36 453.72 388.09 459.41 382.67 463.25 374.87 467.24 363.44 460.19 357.4 450.41 351.56 442.95 345.31 434.21 339.33 424.76 332.65 415.3 328.25 406.05 326.56 397.19 326.04 388.06 328.64 378.89 333.77 369.82 340.01 360.16 348.06 350.41 356.91 341.21 366.13 331.94 375.54 323.93 384.31 318.36" stroke-dasharray="1 8" transform="rotate(80.80000000000001, 400, 400)" opacity="0.81"></path><path d="M379.23 329.08C386.45 325.45 392.9 324.63 398.59 326.31 404.54 329.09 410.27 334.01 415.97 340.36 422.61 347.31 429.84 355.19 437.48 363.27 446.1 371.51 454.7 379.67 462.16 387.11 470.81 397.55 470.09 411.41 462.01 415.57 455.05 418.62 446.85 421.32 438.35 423.88 429.69 427.73 421.13 431.93 413.3 436.21 405.47 441.69 399.02 446.18 393.88 449.24 386.28 452.83 373.55 448.97 366.96 441.97 361.39 436.53 355.72 429.72 350.5 421.88 344.77 414.04 340.84 405.93 338.97 397.87 337.75 389.67 338.9 381.28 342.08 372.99 345.98 364.43 351.5 355.93 357.99 348.09 364.74 340.34 372.01 333.72 379.23 329.08" stroke-dasharray="10 6" transform="rotate(84.84, 400, 400)" opacity="0.85"></path><path d="M378.11 339.79C389.63 334.48 400.96 337.4 411.85 345.69 424.82 355.65 439.3 368.49 450.99 380.29 461.06 392.08 461.64 400.43 454.73 405.65 445.43 412.62 432.21 419.44 419.5 425.5 406.78 434.56 396.79 439.2 389.23 438.09 379.64 436.35 369.82 428.54 361.66 416.09 352.2 403.65 349.1 389.16 352.28 375.24 356.98 361.03 366.59 347.73 378.11 339.79" stroke-dasharray="2 10" transform="rotate(88.88, 400, 400)" opacity="0.89"></path><path d="M381.16 350.5C389.86 346.14 399.69 347.39 409.43 352.54 420.08 358.64 431.27 367.3 439.83 376.08 447.48 384.87 448.93 392.09 445.18 397.46 440.14 403.86 431.56 409.97 421.98 414.79 412.38 421.27 403.6 424.42 396.21 423.61 387.75 422.7 379.36 417.39 372.83 408.17 365.53 398.94 362.67 387.7 364.23 376.92 366.37 366.22 372.45 356.38 381.16 350.5" stroke-dasharray="6 5" transform="rotate(92.92, 400, 400)" opacity="0.92"></path><path d="M387.79 361.22C399.59 355.72 417.52 363.35 428.66 375.06 438.25 386.75 433.01 398.2 420.27 404.07 407.52 412.86 392.63 411.29 384 399.15 373.97 387.01 375.99 369.44 387.79 361.22" stroke-dasharray="11 6" transform="rotate(96.96, 400, 400)" opacity="0.96"></path></g></svg>