<svg xmlns="http://www.w3.org/2000/svg" version="1.1" xmlns:xlink="http://www.w3.org/1999/xlink" xmlns:svgjs="http://svgjs.dev/svgjs" viewBox="0 0 800 800"><defs><linearGradient x1="50%" y1="0%" x2="50%" y2="100%" id="ccchaos-grad"><stop stop-color="hsl(1.4, 100%, 67%)" stop-opacity="1" offset="0%"></stop><stop stop-color="hsl(167, 52%, 78%)" stop-opacity="1" offset="100%"></stop></linearGradient></defs><g stroke-width="2" stroke="url(#ccchaos-grad)" fill="none" stroke-linecap="round"><path d="M379.99 115.41C389.39 118.68 398.77 122.16 408.1 125.7 417.44 128.72 426.76 131.58 436.05 134.22 445.39 136.16 454.72 137.88 464.05 139.41 473.46 140.34 482.91 141.25 492.39 142.24 502 142.94 511.68 143.95 521.42 145.37 531.32 146.84 541.31 148.93 551.36 151.68 561.55 154.75 571.8 158.61 582.04 163.23 592.37 168.29 602.62 174.13 612.73 180.69 622.77 187.67 632.54 195.3 641.91 203.5 651.02 212.02 659.55 221 667.38 230.35 674.7 239.91 681.13 249.74 686.55 259.78 691.26 269.92 694.82 280.19 697.16 290.54 698.72 300.93 699.04 311.36 698.12 321.78 696.55 332.22 693.88 342.65 690.22 353.04 686.27 363.43 681.61 373.77 676.42 384.05 671.44 394.33 666.3 404.53 661.2 414.62 656.83 424.71 652.9 434.43 649.5 443.75 647.1 453.05 645.28 461.93 644.03 470.34 643.74 478.69 643.87 486.55 644.33 493.88 645.46 501.13 646.67 507.82 647.79 513.94 649.77 522.73 651.43 537.65 650.5 544.02 648.32 550.37 639 563.15 631.87 570.3 626.43 575.91 620.21 582.01 613.29 588.72 606.03 596.35 598.17 604.68 589.79 613.68 581.18 623.51 572.14 633.85 562.77 644.53 553.27 655.52 543.51 666.41 533.56 676.85 523.56 686.79 513.43 695.67 503.21 703.12 492.99 709.25 482.72 713.45 472.44 715.52 462.17 715.85 451.91 713.98 441.68 709.99 431.46 704.65 421.28 697.71 411.14 689.53 401.01 681.15 391.15 672.64 381.57 664.46 371.98 657.34 362.65 651.2 353.58 646.24 344.48 642.95 335.61 640.93 326.99 640.09 318.3 640.74 309.83 642.17 301.58 644.11 293.24 646.81 285.09 649.42 277.13 651.66 269.07 653.82 261.18 655.11 253.47 655.35 245.63 654.93 237.95 653.22 230.45 650.2 222.82 646.32 215.37 641.15 208.11 634.81 200.74 627.7 193.58 619.59 186.66 610.66 179.67 601.22 172.95 591.17 166.54 580.7 160.13 569.97 154.05 558.99 148.38 547.89 142.76 536.73 137.59 525.56 132.89 514.46 128.32 503.39 124.27 492.43 120.78 481.63 117.47 470.89 114.74 460.31 112.63 449.89 110.71 439.53 109.42 429.31 108.78 419.26 108.32 409.24 108.49 399.35 109.31 389.63 110.28 379.92 111.83 370.57 113.92 361.62 116.07 352.65 118.71 344.05 121.8 335.84 124.86 327.62 128.31 319.77 132.11 312.31 135.82 304.81 139.84 297.68 144.13 290.91 148.27 284.06 152.66 277.54 157.27 271.31 161.7 264.94 166.36 258.79 171.21 252.84 175.88 246.64 180.78 240.54 185.88 234.49 190.82 228.1 196 221.67 201.42 215.18 206.72 208.27 212.28 201.26 218.12 194.14 223.87 186.63 229.92 179.06 236.26 171.49 242.56 163.69 249.17 156.02 256.08 148.6 262.98 141.24 270.19 134.34 277.68 128.06 285.18 122.17 292.97 117.11 301.03 113.02 309.09 109.56 317.42 107.19 325.99 105.95 334.55 105.38 343.35 105.88 352.36 107.41 361.37 109.35 370.58 112.06 379.98 115.4" stroke-dasharray="5 2" transform="rotate(0, 400, 400)" opacity="0.05"></path><path d="M382.12 126.45C391.2 129.68 400.3 133.14 409.38 136.66 418.48 139.69 427.58 142.6 436.69 145.3 445.83 147.35 455.01 149.18 464.2 150.83 473.46 151.89 482.78 152.9 492.14 153.95 501.6 154.67 511.13 155.64 520.73 156.93 530.43 158.22 540.2 160.03 550 162.42 559.9 165.05 569.81 168.39 579.67 172.43 589.55 176.84 599.31 181.99 608.87 187.83 618.32 194.06 627.44 200.93 636.13 208.37 644.52 216.14 652.33 224.4 659.42 233.06 666.01 241.94 671.74 251.15 676.5 260.59 680.6 270.17 683.63 279.93 685.51 289.79 686.71 299.72 686.77 309.72 685.7 319.73 684.07 329.77 681.45 339.81 677.93 349.8 674.17 359.81 669.78 369.76 664.9 379.62 660.23 389.49 655.4 399.25 650.58 408.87 646.44 418.49 642.66 427.72 639.33 436.54 636.92 445.33 635.01 453.69 633.6 461.59 633.06 469.45 632.91 476.83 633.05 483.7 633.85 490.53 634.72 496.85 635.55 502.66 637.15 511.12 638.53 525.97 637.75 532.66 635.92 539.55 627.88 553.98 621.62 562.16 616.83 568.42 611.3 575.18 605.09 582.5 598.57 590.62 591.45 599.33 583.81 608.58 575.94 618.48 567.63 628.72 558.95 639.14 550.14 649.7 541.03 660 531.69 669.74 522.29 678.9 512.71 686.97 503.02 693.62 493.31 698.99 483.51 702.55 473.67 704.1 463.83 704.09 453.96 702.06 444.1 698.08 434.24 692.91 424.39 686.27 414.57 678.49 404.75 670.52 395.18 662.4 385.86 654.54 376.52 647.6 367.42 641.5 358.56 636.44 349.66 632.87 340.99 630.45 332.53 629.11 324.01 629.17 315.7 630 307.58 631.37 299.38 633.54 291.35 635.75 283.51 637.74 275.56 639.8 267.78 641.19 260.16 641.72 252.44 641.77 244.87 640.71 237.47 638.5 229.97 635.56 222.63 631.44 215.49 626.21 208.26 620.27 201.25 613.34 194.46 605.56 187.64 597.26 181.08 588.3 174.83 578.82 168.59 569.04 162.7 558.91 157.19 548.57 151.75 538.1 146.75 527.54 142.21 516.96 137.82 506.36 133.92 495.82 130.57 485.38 127.4 474.97 124.8 464.67 122.8 454.54 120.99 444.43 119.79 434.48 119.22 424.69 118.84 414.92 119.07 405.31 119.93 395.88 120.93 386.44 122.5 377.4 124.59 368.73 126.75 360.06 129.38 351.76 132.43 343.83 135.47 335.87 138.89 328.28 142.65 321.04 146.31 313.74 150.28 306.78 154.52 300.13 158.61 293.38 162.94 286.9 167.49 280.66 171.86 274.25 176.44 268.02 181.22 261.91 185.82 255.56 190.63 249.26 195.63 242.98 200.47 236.36 205.54 229.69 210.82 222.96 215.97 215.85 221.37 208.66 227.02 201.4 232.58 193.82 238.41 186.22 244.5 178.67 250.55 170.98 256.88 163.48 263.49 156.29 270.08 149.21 276.96 142.65 284.11 136.72 291.26 131.21 298.69 126.53 306.38 122.79 314.07 119.67 322.02 117.59 330.22 116.59 338.41 116.21 346.84 116.85 355.49 118.45 364.15 120.43 373.02 123.13 382.11 126.44" stroke-dasharray="5 0" transform="rotate(4.04, 400, 400)" opacity="0.09"></path><path d="M384.91 137.49C393.69 140.69 402.51 144.1 411.34 147.59 420.19 150.64 429.07 153.57 437.97 156.34 446.9 158.48 455.89 160.43 464.9 162.19 473.98 163.39 483.11 164.52 492.29 165.65 501.56 166.42 510.88 167.38 520.24 168.61 529.69 169.76 539.17 171.35 548.65 173.44 558.18 175.7 567.68 178.58 577.08 182.09 586.47 185.91 595.68 190.42 604.65 195.57 613.47 201.07 621.92 207.19 629.91 213.88 637.6 220.88 644.68 228.38 651.05 236.3 656.96 244.47 662.02 252.98 666.16 261.76 669.7 270.7 672.24 279.85 673.73 289.14 674.6 298.52 674.44 308 673.26 317.51 671.59 327.07 669.04 336.65 665.67 346.18 662.12 355.74 657.99 365.24 653.41 374.65 649.04 384.07 644.51 393.37 639.97 402.52 636.04 411.67 632.41 420.43 629.18 428.77 626.75 437.11 624.77 445.02 623.22 452.49 622.47 459.93 622.06 466.92 621.92 473.46 622.67 483.02 624.69 500.05 625.35 507.68 625.69 515.21 623.42 529.89 620.49 537.5 618.03 543.08 614.83 548.93 610.93 555.12 606.72 561.96 601.81 569.26 596.26 577.05 590.43 585.52 584.01 594.46 577.07 603.81 569.91 613.64 562.3 623.66 554.31 633.7 546.18 643.73 537.72 653.39 529.01 662.4 520.22 670.77 511.22 678.02 502.07 683.9 492.89 688.56 483.59 691.51 474.21 692.6 464.83 692.28 455.38 690.11 445.91 686.17 436.45 681.18 426.95 674.84 417.46 667.45 407.97 659.89 398.69 652.15 389.64 644.61 380.57 637.87 371.71 631.85 363.07 626.71 354.39 622.92 345.91 620.15 337.62 618.35 329.29 617.86 321.13 618.11 313.15 618.92 305.1 620.55 297.2 622.31 289.48 623.97 281.67 625.84 274.01 627.21 266.5 627.89 258.91 628.26 251.47 627.7 244.19 626.14 236.82 624 229.63 620.78 222.62 616.54 215.56 611.68 208.7 605.86 202.08 599.2 195.44 592.02 189.06 584.15 182.99 575.71 176.94 566.94 171.24 557.75 165.91 548.26 160.67 538.6 155.86 528.75 151.5 518.82 147.28 508.82 143.55 498.81 140.35 488.84 137.33 478.87 134.86 468.97 132.98 459.2 131.28 449.44 130.18 439.81 129.68 430.33 129.37 420.87 129.65 411.55 130.54 402.4 131.57 393.26 133.15 384.49 135.24 376.09 137.39 367.67 140 359.61 143.02 351.9 146.03 344.16 149.41 336.74 153.11 329.65 156.74 322.49 160.65 315.61 164.83 309 168.86 302.28 173.14 295.77 177.62 289.46 181.94 282.96 186.46 276.59 191.16 270.31 195.69 263.78 200.42 257.27 205.33 250.75 210.09 243.93 215.05 237.05 220.21 230.12 225.24 222.87 230.5 215.56 235.98 208.21 241.37 200.62 247 193.07 252.89 185.62 258.7 178.11 264.79 170.83 271.14 163.92 277.45 157.18 284.04 150.97 290.89 145.42 297.72 140.3 304.82 136.01 312.18 132.63 319.52 129.84 327.13 128.05 334.98 127.28 342.82 127.09 350.92 127.85 359.24 129.52 367.56 131.52 376.11 134.21 384.9 137.48" stroke-dasharray="2 11" transform="rotate(8.08, 400, 400)" opacity="0.13"></path><path d="M388.26 148.53C396.75 151.68 405.29 155.05 413.86 158.5 422.44 161.54 431.08 164.51 439.75 167.32 448.45 169.56 457.21 171.61 466.01 173.5 474.86 174.84 483.76 176.09 492.7 177.32 501.71 178.18 510.76 179.17 519.82 180.37 528.94 181.43 538.07 182.86 547.16 184.72 556.26 186.67 565.3 189.16 574.19 192.22 583.03 195.51 591.66 199.42 599.99 203.93 608.16 208.75 615.94 214.15 623.23 220.1 630.22 226.34 636.6 233.08 642.28 240.26 647.53 247.66 651.97 255.44 655.53 263.51 658.57 271.76 660.67 280.24 661.8 288.89 662.4 297.65 662.06 306.54 660.79 315.48 659.12 324.5 656.65 333.54 653.44 342.56 650.1 351.61 646.22 360.62 641.94 369.55 637.87 378.48 633.63 387.31 629.36 395.99 625.64 404.67 622.17 412.99 619.02 420.91 616.61 428.83 614.57 436.35 612.9 443.47 611.96 450.57 611.31 457.28 610.91 463.59 611.21 472.89 612.4 489.84 612.77 497.69 612.96 505.6 610.84 521.5 608.25 529.91 606.11 536.02 603.31 542.41 599.85 549.15 596.15 556.45 591.79 564.16 586.83 572.28 581.63 580.95 575.86 589.98 569.58 599.28 563.1 608.9 556.17 618.58 548.84 628.14 541.37 637.58 533.56 646.55 525.47 654.79 517.3 662.37 508.89 668.83 500.3 673.96 491.67 677.95 482.88 680.34 473.98 681.02 465.08 680.42 456.08 678.14 447.02 674.26 437.96 669.45 428.85 663.42 419.7 656.4 410.56 649.25 401.6 641.89 392.82 634.67 384.04 628.15 375.44 622.23 367.02 617.06 358.58 613.09 350.3 610.01 342.2 607.81 334.06 606.81 326.07 606.51 318.24 606.77 310.36 607.85 302.61 609.13 295.02 610.42 287.36 612.01 279.84 613.25 272.47 613.96 265.03 614.51 257.73 614.29 250.59 613.23 243.39 611.72 236.36 609.27 229.52 605.89 222.63 601.98 215.96 597.17 209.52 591.55 203.07 585.45 196.9 578.65 191.02 571.24 185.19 563.5 179.69 555.28 174.56 546.7 169.53 537.92 164.91 528.88 160.74 519.68 156.71 510.38 153.16 501 150.12 491.6 147.26 482.17 144.93 472.76 143.16 463.43 141.58 454.09 140.57 444.85 140.15 435.72 139.9 426.61 140.23 417.61 141.15 408.76 142.21 399.92 143.79 391.41 145.87 383.25 148.01 375.07 150.59 367.22 153.57 359.68 156.54 352.11 159.87 344.82 163.51 337.81 167.09 330.73 170.95 323.89 175.05 317.26 179.04 310.52 183.25 303.94 187.66 297.51 191.92 290.9 196.38 284.37 201.01 277.9 205.49 271.2 210.14 264.49 214.97 257.78 219.65 250.79 224.51 243.75 229.57 236.67 234.49 229.34 239.62 221.97 244.96 214.62 250.2 207.1 255.67 199.66 261.36 192.38 266.99 185.1 272.86 178.11 278.97 171.52 285.04 165.15 291.36 159.33 297.94 154.18 304.48 149.47 311.29 145.57 318.34 142.55 325.38 140.09 332.67 138.58 340.21 138.03 347.73 138.01 355.5 138.89 363.51 140.61 371.51 142.63 379.76 145.31 388.25 148.53" stroke-dasharray="9 11" transform="rotate(12.12, 400, 400)" opacity="0.16"></path><path d="M392.05 159.57C400.24 162.67 408.5 165.98 416.8 169.39 425.11 172.42 433.48 175.4 441.9 178.25 450.34 180.57 458.84 182.73 467.37 184.73 475.95 186.21 484.57 187.6 493.22 188.94 501.91 189.9 510.63 190.96 519.33 192.16 528.07 193.19 536.78 194.52 545.42 196.21 554.05 197.91 562.57 200.09 570.91 202.76 579.16 205.59 587.18 208.98 594.87 212.92 602.38 217.1 609.48 221.84 616.08 227.09 622.38 232.6 628.09 238.6 633.12 245.03 637.74 251.67 641.61 258.7 644.65 266.05 647.22 273.56 648.94 281.34 649.76 289.31 650.13 297.4 649.64 305.64 648.32 313.98 646.67 322.38 644.29 330.85 641.25 339.32 638.11 347.82 634.5 356.31 630.51 364.73 626.71 373.16 622.75 381.52 618.74 389.74 615.23 397.97 611.92 405.86 608.87 413.41 606.48 420.95 604.4 428.14 602.64 434.98 601.53 441.82 600.67 448.33 600.03 454.51 599.91 463.67 600.31 480.8 600.37 488.98 600.36 497.33 598.28 514.46 595.93 523.58 594.03 530.15 591.55 537 588.48 544.15 585.2 551.79 581.33 559.77 576.9 568.07 572.26 576.79 567.08 585.76 561.41 594.87 555.56 604.17 549.26 613.41 542.56 622.41 535.74 631.2 528.56 639.43 521.08 646.9 513.52 653.69 505.69 659.39 497.66 663.8 489.58 667.16 481.32 669.04 472.92 669.35 464.51 668.52 455.97 666.16 447.34 662.36 438.7 657.73 429.99 652 421.21 645.36 412.44 638.6 403.8 631.62 395.33 624.73 386.85 618.44 378.52 612.64 370.34 607.48 362.15 603.36 354.1 600.03 346.2 597.48 338.26 596.02 330.47 595.21 322.81 594.94 315.11 595.48 307.54 596.27 300.11 597.15 292.62 598.39 285.27 599.41 278.05 600.05 270.78 600.65 263.65 600.63 256.69 599.92 249.67 598.89 242.82 597.04 236.17 594.38 229.49 591.28 223.01 587.36 216.78 582.67 210.56 577.57 204.6 571.77 198.94 565.36 193.33 558.62 188.06 551.38 183.15 543.72 178.34 535.85 173.93 527.67 169.96 519.26 166.13 510.74 162.76 502.06 159.89 493.29 157.19 484.48 155 475.64 153.36 466.8 151.9 457.96 150.98 449.16 150.63 440.43 150.45 431.71 150.83 423.06 151.77 414.53 152.84 405.99 154.42 397.76 156.47 389.82 158.59 381.87 161.14 374.2 164.06 366.8 166.99 359.36 170.27 352.17 173.84 345.21 177.36 338.17 181.15 331.33 185.19 324.66 189.11 317.87 193.26 311.2 197.6 304.64 201.8 297.92 206.19 291.24 210.76 284.6 215.17 277.75 219.75 270.89 224.5 264.02 229.11 256.92 233.89 249.78 238.85 242.63 243.68 235.29 248.7 227.95 253.91 220.67 259.02 213.29 264.34 206.03 269.87 198.99 275.32 192.01 281 185.36 286.9 179.13 292.75 173.16 298.85 167.76 305.17 163.03 311.46 158.74 318 155.22 324.78 152.56 331.53 150.42 338.54 149.18 345.78 148.84 353 148.98 360.48 149.96 368.19 151.72 375.89 153.76 383.84 156.4 392.04 159.57" stroke-dasharray="8 7" transform="rotate(16.16, 400, 400)" opacity="0.20"></path><path d="M396.13 170.61C404.03 173.65 411.99 176.9 420.01 180.25 428.03 183.26 436.12 186.24 444.24 189.12 452.39 191.51 460.59 193.77 468.82 195.88 477.08 197.5 485.38 199.02 493.68 200.49 502.01 201.58 510.34 202.72 518.64 203.97 526.94 205.02 535.19 206.3 543.33 207.86 551.44 209.4 559.4 211.32 567.15 213.68 574.81 216.13 582.19 219.08 589.23 222.51 596.08 226.13 602.51 230.26 608.44 234.88 614.09 239.7 619.15 244.99 623.57 250.71 627.62 256.61 630.95 262.91 633.53 269.53 635.68 276.3 637.05 283.36 637.62 290.64 637.79 298.03 637.19 305.6 635.84 313.3 634.22 321.07 631.96 328.92 629.09 336.82 626.16 344.75 622.8 352.69 619.09 360.6 615.57 368.53 611.89 376.4 608.13 384.18 604.82 391.97 601.67 399.47 598.73 406.68 596.37 413.89 594.27 420.8 592.43 427.43 591.17 434.07 590.14 440.44 589.28 446.55 588.92 452.71 588.63 458.65 588.36 464.41 588.4 473.15 587.91 490.48 587.02 499.34 586.32 505.56 585.18 511.92 583.56 518.47 581.85 525.4 579.62 532.58 576.86 540.02 573.95 547.86 570.49 555.96 566.52 564.29 562.38 572.93 557.73 581.69 552.61 590.5 547.34 599.37 541.63 608.07 535.53 616.44 529.31 624.53 522.73 632.02 515.84 638.71 508.87 644.73 501.62 649.69 494.14 653.44 486.62 656.22 478.89 657.63 470.99 657.6 463.07 656.57 455.01 654.16 446.82 650.45 438.63 646.02 430.32 640.58 421.93 634.32 413.54 627.94 405.26 621.34 397.11 614.78 388.95 608.73 380.91 603.08 373 597.95 365.07 593.75 357.26 590.21 349.59 587.36 341.89 585.49 334.3 584.21 326.85 583.45 319.35 583.46 311.98 583.76 304.73 584.19 297.44 585.05 290.28 585.77 283.25 586.24 276.18 586.78 269.25 586.83 262.48 586.32 255.67 585.62 249.04 584.23 242.59 582.13 236.14 579.7 229.9 576.53 223.89 572.66 217.91 568.44 212.19 563.55 206.76 558.06 201.4 552.27 196.36 545.97 191.68 539.22 187.11 532.26 182.93 524.95 179.16 517.35 175.54 509.63 172.36 501.7 169.66 493.62 167.13 485.48 165.09 477.24 163.57 468.97 162.23 460.67 161.4 452.35 161.12 444.06 161.01 435.77 161.42 427.5 162.38 419.3 163.47 411.09 165.04 403.13 167.06 395.42 169.15 387.7 171.65 380.2 174.52 372.93 177.39 365.62 180.6 358.51 184.1 351.58 187.55 344.58 191.27 337.72 195.23 331 199.09 324.17 203.16 317.42 207.43 310.75 211.57 303.93 215.89 297.14 220.37 290.37 224.72 283.42 229.24 276.46 233.91 269.49 238.45 262.35 243.15 255.19 248.02 248.05 252.76 240.78 257.68 233.55 262.78 226.42 267.77 219.25 272.96 212.25 278.34 205.51 283.64 198.88 289.15 192.61 294.87 186.79 300.53 181.25 306.41 176.29 312.51 171.98 318.58 168.11 324.87 164.98 331.4 162.66 337.89 160.84 344.62 159.85 351.59 159.71 358.54 160 365.72 161.06 373.15 162.86 380.56 164.9 388.22 167.51 396.12 170.61" stroke-dasharray="8 6" transform="rotate(20.200000000000003, 400, 400)" opacity="0.24"></path><path d="M400.35 181.65C407.95 184.62 415.62 187.8 423.33 191.08 431.05 194.07 438.82 197.04 446.63 199.94 454.46 202.39 462.33 204.73 470.21 206.94 478.12 208.69 486.04 210.35 493.95 211.95 501.87 213.18 509.77 214.43 517.61 215.75 525.44 216.84 533.18 218.12 540.79 219.62 548.35 221.05 555.73 222.8 562.88 224.91 569.91 227.06 576.66 229.64 583.05 232.65 589.25 235.79 595.03 239.39 600.32 243.43 605.34 247.64 609.81 252.28 613.66 257.33 617.17 262.55 620.03 268.13 622.18 274.05 623.97 280.11 625.04 286.46 625.39 293.06 625.4 299.75 624.73 306.65 623.38 313.7 621.81 320.82 619.66 328.06 616.98 335.38 614.26 342.72 611.14 350.12 607.7 357.52 604.45 364.94 601.02 372.34 597.52 379.71 594.41 387.07 591.41 394.21 588.59 401.12 586.27 408.02 584.16 414.71 582.27 421.16 580.9 427.64 579.7 433.92 578.66 440.01 578.07 446.16 577.54 452.16 577.04 458.05 576.85 464.05 576.57 470 576.16 475.92 575.91 482.04 575.42 488.2 574.63 494.45 573.88 500.97 572.76 507.64 571.23 514.49 569.65 521.65 567.61 529.03 565.1 536.62 562.48 544.51 559.37 552.59 555.8 560.81 552.08 569.22 547.9 577.66 543.28 586.04 538.53 594.39 533.36 602.49 527.8 610.18 522.14 617.55 516.13 624.27 509.8 630.2 503.4 635.48 496.71 639.74 489.77 642.86 482.79 645.11 475.59 646.1 468.19 645.78 460.77 644.59 453.18 642.15 445.45 638.55 437.71 634.32 429.83 629.18 421.84 623.28 413.85 617.28 405.94 611.05 398.12 604.82 390.3 599.03 382.57 593.54 374.95 588.49 367.31 584.23 359.78 580.54 352.35 577.43 344.91 575.21 337.56 573.52 330.33 572.3 323.07 571.82 315.92 571.62 308.89 571.6 301.82 572.04 294.88 572.43 288.06 572.65 281.23 573.03 274.52 573.04 267.97 572.62 261.41 572.1 255.01 571.02 248.81 569.34 242.61 567.42 236.61 564.86 230.86 561.66 225.14 558.19 219.67 554.09 214.5 549.43 209.4 544.51 204.62 539.07 200.18 533.18 195.85 527.1 191.9 520.63 188.35 513.84 184.94 506.92 181.96 499.74 179.44 492.37 177.08 484.93 175.19 477.33 173.8 469.64 172.57 461.92 171.84 454.12 171.63 446.3 171.57 438.46 172.02 430.61 172.99 422.75 174.08 414.9 175.64 407.23 177.63 399.75 179.68 392.26 182.13 384.95 184.93 377.81 187.74 370.63 190.87 363.6 194.29 356.71 197.67 349.75 201.3 342.9 205.17 336.14 208.95 329.29 212.95 322.5 217.13 315.75 221.2 308.88 225.44 302.02 229.85 295.19 234.13 288.2 238.57 281.22 243.17 274.24 247.63 267.13 252.26 260.04 257.03 253 261.69 245.87 266.52 238.83 271.5 231.93 276.39 225.05 281.46 218.38 286.7 212 291.86 205.76 297.22 199.91 302.77 194.53 308.26 189.45 313.95 184.93 319.85 181.06 325.71 177.6 331.78 174.85 338.07 172.87 344.32 171.35 350.81 170.6 357.51 170.64 364.19 171.06 371.11 172.21 378.25 174.03 385.38 176.06 392.74 178.62 400.34 181.65" stroke-dasharray="7 4" transform="rotate(24.24, 400, 400)" opacity="0.28"></path><path d="M404.57 192.69C411.86 195.59 419.21 198.68 426.59 201.9 433.99 204.84 441.43 207.79 448.89 210.69 456.37 213.19 463.87 215.6 471.37 217.9 478.89 219.78 486.4 221.57 493.88 223.3 501.36 224.67 508.79 226.05 516.13 227.47 523.45 228.64 530.66 229.95 537.71 231.45 544.7 232.82 551.48 234.46 558.02 236.4 564.44 238.33 570.56 240.62 576.31 243.29 584.46 247.6 598.11 258.43 603.39 264.91 607.64 271.96 612.51 287.92 613.08 296.7 612.98 302.72 612.25 308.96 610.92 315.39 609.42 321.87 607.4 328.5 604.9 335.24 602.39 342.02 599.51 348.87 596.34 355.78 593.34 362.7 590.17 369.65 586.9 376.61 583.99 383.57 581.16 390.38 578.45 397.01 576.19 403.64 574.09 410.12 572.15 416.43 570.69 422.77 569.36 428.98 568.16 435.07 567.36 441.22 566.62 447.29 565.9 453.3 565.48 459.42 564.99 465.54 564.37 471.68 563.94 478 563.31 484.39 562.42 490.88 561.61 497.6 560.47 504.46 558.98 511.48 557.48 518.75 555.57 526.19 553.26 533.78 550.87 541.58 548.05 549.5 544.81 557.47 541.46 565.53 537.68 573.55 533.49 581.41 529.2 589.16 524.52 596.6 519.46 603.59 514.32 610.21 508.84 616.18 503.03 621.37 497.17 625.93 491.01 629.54 484.59 632.08 478.14 633.84 471.45 634.46 464.54 633.9 457.62 632.57 450.51 630.13 443.23 626.64 435.95 622.63 428.51 617.78 420.94 612.24 413.36 606.61 405.83 600.75 398.38 594.85 390.92 589.32 383.52 584.03 376.21 579.07 368.89 574.8 361.65 571 354.5 567.7 347.33 565.17 340.26 563.12 333.28 561.49 326.29 560.54 319.39 559.88 312.6 559.42 305.79 559.42 299.1 559.43 292.53 559.36 285.95 559.5 279.5 559.38 273.2 558.93 266.91 558.48 260.78 557.57 254.83 556.16 248.91 554.61 243.19 552.51 237.71 549.85 232.27 546.98 227.08 543.56 222.18 539.6 217.35 535.44 212.83 530.77 208.65 525.66 204.58 520.38 200.87 514.71 197.54 508.68 194.36 502.54 191.58 496.1 189.24 489.43 187.05 482.68 185.31 475.74 184.04 468.64 182.93 461.51 182.3 454.26 182.15 446.91 182.15 439.56 182.63 432.14 183.61 424.66 184.7 417.18 186.23 409.82 188.17 402.59 190.19 395.36 192.57 388.24 195.29 381.25 198.03 374.23 201.08 367.3 204.41 360.47 207.7 353.59 211.25 346.78 215.01 340.03 218.71 333.2 222.62 326.41 226.7 319.65 230.69 312.79 234.85 305.94 239.17 299.11 243.38 292.17 247.74 285.24 252.25 278.34 256.64 271.36 261.18 264.41 265.86 257.55 270.44 250.66 275.17 243.89 280.05 237.3 284.84 230.76 289.79 224.47 294.9 218.5 299.94 212.71 305.15 207.31 310.54 202.4 315.87 197.77 321.39 193.71 327.1 190.27 332.76 187.22 338.62 184.85 344.69 183.19 350.72 181.95 356.96 181.43 363.41 181.63 369.84 182.18 376.48 183.39 383.34 185.22 390.19 187.23 397.26 189.74 404.56 192.69" stroke-dasharray="3 1" transform="rotate(28.28, 400, 400)" opacity="0.32"></path><path d="M408.61 203.73C415.58 206.54 422.6 209.55 429.65 212.68 436.7 215.58 443.78 218.49 450.87 221.38 457.97 223.92 465.08 226.38 472.17 228.76 479.26 230.75 486.33 232.67 493.34 234.52 500.35 236.03 507.28 237.54 514.11 239.08 520.9 240.36 527.55 241.74 534.03 243.26 540.44 244.63 546.63 246.22 552.56 248.05 561.12 250.87 576.27 258.14 582.67 262.67 588.25 267.68 596.43 279.6 598.9 286.46 600.4 293.75 600.15 309.81 598.49 318.46 597.07 324.33 595.19 330.38 592.87 336.58 590.56 342.8 587.92 349.14 585.01 355.57 582.25 362.01 579.32 368.53 576.29 375.11 573.57 381.69 570.89 388.17 568.31 394.55 566.11 400.93 564.04 407.21 562.09 413.4 560.55 419.61 559.12 425.75 557.78 431.83 556.81 437.97 555.88 444.08 554.96 450.18 554.33 456.38 553.63 462.62 552.84 468.9 552.22 475.33 551.44 481.85 550.45 488.48 549.54 495.28 548.36 502.22 546.88 509.27 545.42 516.51 543.6 523.87 541.44 531.32 539.23 538.91 536.63 546.53 533.66 554.13 530.61 561.74 527.18 569.23 523.37 576.51 519.48 583.61 515.23 590.36 510.62 596.61 505.95 602.49 500.94 607.73 495.63 612.2 490.26 616.09 484.61 619.09 478.69 621.11 472.73 622.43 466.54 622.72 460.12 621.95 453.68 620.52 447.05 618.11 440.23 614.75 433.4 610.94 426.4 606.39 419.26 601.2 412.11 595.93 404.98 590.43 397.9 584.87 390.81 579.62 383.77 574.53 376.79 569.7 369.81 565.46 362.89 561.59 356.04 558.15 349.19 555.38 342.41 553.01 335.72 551.03 329.02 549.66 322.4 548.57 315.89 547.68 309.37 547.24 302.96 546.87 296.67 546.46 290.37 546.31 284.21 545.99 278.2 545.42 269.28 544.49 252.37 540.59 244.46 537.44 236.87 533.59 223.15 523.24 217.11 516.81 213.3 512.25 209.84 507.28 206.75 501.96 203.79 496.54 201.21 490.8 199.06 484.79 197.04 478.72 195.45 472.41 194.31 465.9 193.32 459.37 192.77 452.66 192.68 445.81 192.74 438.95 193.24 431.97 194.22 424.88 195.3 417.79 196.81 410.76 198.7 403.81 200.66 396.86 202.97 389.97 205.61 383.16 208.27 376.32 211.23 369.54 214.45 362.83 217.65 356.07 221.09 349.34 224.75 342.66 228.35 335.91 232.15 329.19 236.13 322.49 240.03 315.71 244.1 308.95 248.32 302.21 252.44 295.41 256.71 288.62 261.12 281.89 265.43 275.12 269.88 268.41 274.47 261.82 278.96 255.24 283.59 248.81 288.36 242.59 293.05 236.47 297.88 230.62 302.87 225.1 307.78 219.77 312.86 214.86 318.09 210.41 323.27 206.26 328.62 202.66 334.14 199.64 339.62 196.99 345.28 194.97 351.13 193.63 356.94 192.65 362.95 192.33 369.15 192.69 375.33 193.34 381.71 194.6 388.28 196.43 394.85 198.42 401.62 200.87 408.6 203.73" stroke-dasharray="7 2" transform="rotate(32.32, 400, 400)" opacity="0.35"></path><path d="M412.33 214.77C418.97 217.49 425.65 220.41 432.33 223.44 439.02 226.28 445.72 229.15 452.42 232.01 459.11 234.56 465.8 237.06 472.45 239.5 479.1 241.59 485.7 243.62 492.23 245.6 498.74 247.25 505.16 248.89 511.45 250.55 517.7 251.95 523.79 253.43 529.7 255.01 538.33 257.21 554.14 262.46 561.16 265.65 567.57 269.1 578.02 277.61 581.92 282.69 584.99 288.17 588.2 300.75 588.33 307.77 587.69 315.13 583.89 331.02 580.89 339.46 578.77 345.16 576.36 351.01 573.69 356.99 571.17 362.98 568.48 369.09 565.68 375.31 563.15 381.52 560.63 387.7 558.17 393.82 556.05 399.95 554.01 406.04 552.06 412.09 550.47 418.16 548.96 424.22 547.51 430.26 546.39 436.35 545.3 442.46 544.22 448.59 543.39 454.81 542.51 461.08 541.54 467.42 540.75 473.87 539.82 480.42 538.71 487.05 537.71 493.83 536.47 500.7 534.97 507.66 533.51 514.73 531.76 521.88 529.69 529.06 527.61 536.3 525.19 543.52 522.44 550.64 519.64 557.73 516.5 564.62 513.01 571.25 509.47 577.67 505.59 583.7 501.39 589.23 497.13 594.38 492.56 598.9 487.69 602.69 480.19 607.17 463.8 610.88 454.99 609.95 449.03 608.45 442.86 606.07 436.49 602.86 430.12 599.26 423.57 595 416.86 590.16 410.14 585.25 403.43 580.11 396.74 574.88 390.05 569.91 383.39 565.04 376.76 560.37 370.15 556.19 363.57 552.31 357.05 548.77 350.54 545.81 344.08 543.19 337.7 540.9 331.33 539.16 325.02 537.68 318.82 536.39 312.62 535.54 306.51 534.77 300.53 534.02 291.63 533.25 274.55 531.13 266.45 529.46 258.59 527.44 244.03 521.33 237.42 517.16 231.2 512.41 220.43 500.69 215.97 493.83 212.06 486.5 206.34 470.26 204.6 461.47 203.72 455.5 203.26 449.33 203.23 442.98 203.33 436.61 203.86 430.08 204.83 423.4 205.91 416.72 207.37 410.05 209.21 403.41 211.11 396.76 213.34 390.14 215.89 383.55 218.46 376.95 221.31 370.37 224.42 363.81 227.51 357.23 230.84 350.66 234.38 344.11 237.87 337.52 241.56 330.94 245.42 324.38 249.22 317.78 253.18 311.19 257.28 304.64 261.31 298.05 265.48 291.5 269.78 285.03 273.99 278.55 278.34 272.17 282.82 265.92 287.21 259.72 291.74 253.7 296.4 247.92 300.97 242.25 305.69 236.87 310.55 231.84 315.33 227.01 320.27 222.59 325.35 218.63 330.37 214.95 335.56 211.79 340.89 209.19 348.92 206.08 365.77 203.39 374.61 203.81 380.53 204.55 386.65 205.85 392.93 207.67 399.21 209.63 405.68 212.01 412.32 214.77" stroke-dasharray="9 8" transform="rotate(36.36, 400, 400)" opacity="0.39"></path><path d="M415.6 225.81C421.9 228.43 428.21 231.24 434.52 234.18 440.82 236.94 447.13 239.75 453.41 242.57 465.96 247.38 478.38 252.04 490.46 256.5 502.44 259.78 513.94 263.1 524.68 266.62 535.13 269.44 544.59 272.9 552.77 277.15 560.38 281.23 566.46 286.4 570.77 292.66 574.35 299.02 576.09 306.54 575.92 315.1 575.2 323.78 572.83 333.42 568.95 343.84 567.03 349.06 564.84 354.46 562.41 360.03 560.11 365.6 557.65 371.32 555.06 377.19 552.72 383.06 550.36 388.93 548.03 394.8 546 400.68 544.01 406.57 542.08 412.45 539.15 424.3 536.37 436.27 533.66 448.37 531.9 460.74 529.82 473.43 527.26 486.38 525.12 499.69 522.11 513.25 518.11 526.8 514.12 540.37 508.93 553.48 502.54 565.56 496 576.74 488.23 586.06 479.35 592.85 470.33 597.73 460.26 599.5 449.29 597.9 443.77 596.35 438.05 594.03 432.14 590.98 426.22 587.6 420.11 583.62 413.84 579.12 407.56 574.55 401.27 569.77 394.98 564.87 388.7 560.19 382.43 555.56 376.19 551.07 363.72 543.36 351.37 536.67 339.29 531.11 327.24 527.49 315.47 524.61 304.16 522.11 292.91 520.72 282.17 518.92 272.11 516.32 262.23 513.91 253.13 510.19 245.03 505.06 237.25 499.67 230.58 492.79 225.23 484.53 220.34 476.03 216.84 466.28 214.92 455.5 214.14 450.07 213.77 444.41 213.79 438.54 213.94 432.67 214.49 426.59 215.44 420.33 216.5 414.07 217.93 407.78 219.7 401.47 221.53 395.17 223.68 388.85 226.12 382.53 231.08 369.88 237.07 357.18 243.9 344.53 250.61 331.8 258.04 319.08 266.05 306.53 273.8 293.98 282.11 281.69 290.89 269.97 299.38 258.56 308.4 248.03 317.87 238.78 327.12 230.36 336.93 223.62 347.27 218.92 357.46 215.4 368.27 214.06 379.66 215 385.33 215.82 391.17 217.14 397.16 218.94 403.14 220.85 409.28 223.15 415.58 225.81" stroke-dasharray="9 3" transform="rotate(40.400000000000006, 400, 400)" opacity="0.43"></path><path d="M418.28 236.85C430.17 241.8 442.03 247.33 453.72 253.07 465.41 257.87 476.88 262.62 487.94 267.22 498.9 270.76 509.33 274.33 518.97 278.05 528.33 281.05 536.71 284.56 543.86 288.71 550.52 292.6 555.76 297.39 559.38 303.14 562.42 308.89 563.8 315.67 563.5 323.43 562.77 331.25 560.59 340.01 557.06 349.59 553.66 359.19 549.38 369.56 544.45 380.62 540.34 391.68 536.18 402.94 532.13 414.3 529.14 425.74 526.21 437.41 523.3 449.26 521.23 461.31 518.88 473.65 516.11 486.17 513.76 498.9 510.67 511.73 506.75 524.35 502.89 536.83 498 548.67 492.06 559.37 486.03 569.15 478.89 577.1 470.74 582.68 462.48 586.57 453.23 587.68 443.12 585.79 432.95 582.31 421.97 576.28 410.3 568.08 398.63 559.65 386.86 550.66 375.16 541.81 363.49 534.27 351.9 527.5 340.56 521.63 329.26 517.44 318.23 513.91 307.62 510.77 297.11 508.71 287.09 506.41 277.72 503.55 268.55 501.02 260.13 497.46 252.66 492.73 245.51 487.9 239.4 481.76 234.53 474.36 230.08 466.8 226.94 458.05 225.26 448.24 224.04 438.36 224.27 427.53 226.06 415.87 228.2 404.21 231.69 392.3 236.31 380.31 241.06 368.32 246.79 356.21 253.32 344.13 259.77 332.04 266.92 319.96 274.63 308.11 282.14 296.34 290.18 284.91 298.67 274.12 306.92 263.7 315.66 254.21 324.82 246 333.78 238.58 343.25 232.77 353.18 228.85 362.99 225.98 373.35 225.09 384.2 226.25 395.01 228.17 406.38 231.77 418.27 236.85" stroke-dasharray="5 2" transform="rotate(44.44, 400, 400)" opacity="0.47"></path><path d="M420.29 247.9C431.43 252.62 442.48 257.94 453.29 263.5 464.09 268.27 474.61 273.05 484.66 277.75 494.61 281.51 503.98 285.31 512.56 289.21 520.89 292.43 528.26 296.06 534.48 300.19 540.27 303.99 544.77 308.56 547.81 313.93 550.37 319.22 551.48 325.43 551.09 332.54 550.39 339.65 548.4 347.66 545.22 356.5 542.18 365.33 538.33 374.98 533.84 385.38 530.05 395.78 526.12 406.47 522.21 417.36 519.2 428.31 516.18 439.54 513.12 450.95 510.8 462.5 508.22 474.29 505.27 486.15 502.73 498.1 499.56 510 495.68 521.53 491.91 532.8 487.26 543.33 481.69 552.64 476.08 561.05 469.5 567.71 462 572.18 454.43 575.2 445.94 575.74 436.64 573.65 427.29 570.25 417.17 564.61 406.38 557.04 395.59 549.27 384.67 540.91 373.79 532.56 362.94 525.27 352.16 518.51 341.6 512.46 331.09 507.83 320.83 503.75 310.98 500.03 301.25 497.34 291.97 494.53 283.34 491.34 274.89 488.56 267.17 484.99 260.34 480.49 253.82 476 248.27 470.4 243.88 463.68 239.87 456.88 237.08 448.97 235.64 440.04 234.6 431.06 234.92 421.12 236.67 410.33 238.75 399.53 242.08 388.42 246.47 377.16 250.98 365.92 256.42 354.54 262.64 343.18 268.79 331.85 275.63 320.57 283.01 309.56 290.23 298.7 297.97 288.25 306.13 278.48 314.1 269.12 322.52 260.7 331.33 253.53 339.98 247.1 349.08 242.17 358.58 238.99 367.98 236.71 377.85 236.22 388.15 237.57 398.41 239.55 409.14 243.04 420.29 247.9" stroke-dasharray="3 11" transform="rotate(48.48, 400, 400)" opacity="0.51"></path><path d="M421.54 258.94C431.92 263.43 442.13 268.51 452.05 273.86 461.95 278.55 471.51 283.33 480.58 288.08 489.54 292.01 497.9 296 505.48 300.08 512.84 303.52 519.29 307.29 524.65 311.46 531.6 317.49 538.68 332.69 538.69 342.16 538.05 348.7 536.27 356.08 533.44 364.26 530.74 372.42 527.3 381.39 523.23 391.13 519.75 400.87 516.07 410.95 512.33 421.27 509.34 431.64 506.27 442.28 503.12 453.09 500.61 463.97 497.84 475.02 494.75 486.03 492.04 497.03 488.8 507.85 484.95 518.19 481.24 528.18 476.78 537.36 471.53 545.31 466.29 552.42 460.19 557.89 453.27 561.38 446.31 563.63 438.53 563.69 430 561.48 421.44 558.19 412.15 552.95 402.22 546 392.3 538.88 382.24 531.16 372.21 523.33 362.21 516.35 352.26 509.71 342.51 503.57 332.83 498.63 323.38 494.11 314.32 489.93 305.38 486.66 296.89 483.35 289 479.8 281.3 476.71 274.28 473.02 268.1 468.6 262.2 464.28 257.22 459.04 253.3 452.86 249.72 446.64 247.27 439.43 246.05 431.29 245.19 423.1 245.58 414.01 247.28 404.08 249.28 394.15 252.44 383.88 256.58 373.44 260.84 363.03 265.98 352.48 271.85 341.97 277.69 331.52 284.18 321.17 291.19 311.12 298.09 301.27 305.48 291.87 313.27 283.18 320.91 274.91 328.98 267.57 337.4 261.42 345.69 255.94 354.38 251.86 363.41 249.35 372.36 247.61 381.72 247.47 391.42 248.96 401.1 250.96 411.16 254.33 421.54 258.94" stroke-dasharray="3 3" transform="rotate(52.52, 400, 400)" opacity="0.54"></path><path d="M421.99 269.98C431.58 274.23 440.95 279.03 449.98 284.15 458.98 288.72 467.61 293.44 475.71 298.18 483.72 302.23 491.13 306.36 497.78 310.59 504.24 314.23 509.85 318.14 514.46 322.38 520.44 328.44 526.41 343.09 526.35 351.98 525.78 358.07 524.21 364.92 521.7 372.51 519.34 380.07 516.28 388.4 512.61 397.48 509.44 406.56 506.02 415.99 502.47 425.64 499.54 435.33 496.48 445.26 493.3 455.31 490.65 465.37 487.76 475.51 484.57 485.53 481.73 495.45 478.42 505.1 474.61 514.17 470.96 522.87 466.65 530.72 461.69 537.38 456.75 543.27 451.09 547.66 444.71 550.27 438.3 551.86 431.17 551.55 423.37 549.27 415.54 546.14 407.05 541.3 397.99 534.96 388.92 528.47 379.72 521.38 370.55 514.11 361.4 507.49 352.3 501.05 343.4 494.96 334.56 489.82 325.95 485.01 317.71 480.46 309.58 476.71 301.88 472.97 294.75 469.07 287.8 465.64 281.49 461.77 275.96 457.34 270.68 453.07 266.24 448.07 262.79 442.28 259.63 436.5 257.5 429.87 256.49 422.41 255.8 414.94 256.24 406.63 257.9 397.55 259.81 388.47 262.78 379.08 266.65 369.53 270.65 360.01 275.47 350.38 280.96 340.81 286.46 331.34 292.57 322 299.18 313.01 305.7 304.23 312.71 295.94 320.08 288.35 327.35 281.17 335.01 274.89 342.99 269.72 350.87 265.14 359.11 261.83 367.63 259.93 376.1 258.67 384.9 258.82 393.98 260.41 403.04 262.41 412.4 265.64 421.99 269.98" stroke-dasharray="7 8" transform="rotate(56.56, 400, 400)" opacity="0.58"></path><path d="M421.63 281.02C430.41 285 438.93 289.52 447.07 294.37 455.19 298.78 462.9 303.38 470.09 308.06 477.19 312.17 483.7 316.38 489.5 320.69 497.56 326.52 509.07 338.98 512.25 346 514.14 353.26 512.89 370.61 510.02 380.86 507.97 387.88 505.28 395.6 502 404.01 499.13 412.41 495.97 421.13 492.64 430.03 489.81 438.95 486.8 448.06 483.63 457.21 480.92 466.35 477.95 475.47 474.72 484.39 471.79 493.16 468.46 501.57 464.7 509.37 461.1 516.79 456.95 523.37 452.24 528.81 447.59 533.6 442.31 537.03 436.42 538.89 430.53 539.93 424 539.33 416.89 537.04 409.76 534.09 402.05 529.66 393.82 523.92 385.59 518.05 377.25 511.6 368.94 504.9 360.66 498.7 352.43 492.54 344.38 486.58 336.39 481.39 328.63 476.4 321.22 471.62 313.92 467.51 307.02 463.41 300.65 459.23 294.45 455.47 288.84 451.4 283.94 446.93 279.27 442.64 275.37 437.77 272.36 432.29 269.61 426.85 267.78 420.7 266.98 413.85 266.44 407 266.93 399.44 268.51 391.2 270.32 382.95 273.09 374.45 276.69 365.83 280.41 357.24 284.88 348.59 289.99 340.04 295.11 331.6 300.81 323.33 306.98 315.44 313.1 307.76 319.66 300.58 326.58 294.1 333.43 287.98 340.63 282.7 348.12 278.46 355.54 274.71 363.27 272.09 371.24 270.74 379.18 269.89 387.39 270.28 395.8 271.93 404.21 273.9 412.85 276.95 421.63 281.02" stroke-dasharray="1 1" transform="rotate(60.599999999999994, 400, 400)" opacity="0.62"></path><path d="M420.46 292.06C428.43 295.76 436.09 299.98 443.37 304.52 450.62 308.73 457.45 313.16 463.77 317.71 470.02 321.8 475.7 326.03 480.71 330.36 487.69 336.33 497.56 348.93 500.26 355.85 501.89 362.91 500.86 379.37 498.4 388.91 496.64 395.43 494.29 402.56 491.38 410.27 488.81 417.98 485.92 425.93 482.83 434.02 480.13 442.1 477.22 450.3 474.13 458.47 471.4 466.6 468.43 474.63 465.2 482.38 462.24 489.98 458.93 497.15 455.25 503.7 451.72 509.9 447.73 515.28 443.28 519.63 436.43 524.72 420.15 527.44 410.72 524.8 404.26 522.05 397.3 518.04 389.89 512.87 382.47 507.62 374.99 501.79 367.53 495.68 360.1 489.94 352.74 484.14 345.55 478.43 338.42 473.3 331.51 468.27 324.93 463.39 318.45 459.04 312.34 454.71 306.73 450.32 301.27 446.31 296.34 442.08 292.07 437.56 286.3 430.85 278.89 415.18 277.5 406.03 277.1 399.74 277.62 392.86 279.12 385.44 280.82 378.01 283.38 370.39 286.7 362.72 290.12 355.09 294.23 347.45 298.92 339.95 303.64 332.55 308.9 325.38 314.59 318.6 320.27 312.01 326.36 305.92 332.77 300.49 339.14 295.38 345.84 291.05 352.79 287.65 359.69 284.66 366.87 282.66 374.25 281.77 381.6 281.26 389.17 281.84 396.89 283.51 404.61 285.42 412.5 288.29 420.46 292.06" stroke-dasharray="1 8" transform="rotate(64.64, 400, 400)" opacity="0.66"></path><path d="M418.54 303.1C425.67 306.5 432.49 310.39 438.92 314.61 445.33 318.56 451.33 322.77 456.83 327.12 462.28 331.13 467.19 335.29 471.5 339.56 477.51 345.57 485.95 358.16 488.26 364.95 489.69 371.83 488.9 387.42 486.83 396.27 485.34 402.3 483.32 408.82 480.77 415.82 478.49 422.82 475.88 429.97 473.03 437.18 470.5 444.38 467.73 451.62 464.77 458.75 462.09 465.83 459.17 472.74 456.01 479.33 453.07 485.75 449.82 491.74 446.27 497.1 440.93 504.31 428.43 513.71 421.18 515.38 416.22 515.61 410.81 514.67 405 512.53 399.18 510.02 392.94 506.42 386.33 501.83 379.71 497.17 373.06 491.97 366.45 486.47 359.87 481.23 353.36 475.84 347.03 470.46 340.75 465.51 334.68 460.59 328.92 455.73 323.25 451.3 317.92 446.85 313.05 442.37 306.17 436.04 295.41 422.68 291.78 415.35 289.15 407.73 288.05 390.41 289.74 380.67 291.31 374.03 293.65 367.3 296.67 360.58 299.78 353.89 303.51 347.26 307.77 340.81 312.07 334.45 316.86 328.35 322.05 322.64 327.24 317.1 332.81 312.05 338.68 307.62 344.52 303.44 350.66 299.97 357.03 297.32 363.37 294.99 369.94 293.53 376.68 293.02 383.4 292.8 390.29 293.51 397.29 295.16 404.29 296.98 411.4 299.64 418.54 303.1" stroke-dasharray="8 0" transform="rotate(68.68, 400, 400)" opacity="0.70"></path><path d="M415.92 314.14C428.53 320.21 439.84 327.89 449.36 336.31 458.73 343.69 466.11 351.81 471.06 360.43 475.73 368.24 477.96 377.09 477.59 387 477.25 396.63 474.74 407.77 470.16 420.29 466.38 432.81 461.35 445.59 455.55 457.81 450.64 469.81 444.67 480.76 437.77 489.55 431.32 497.37 423.5 502.24 414.42 503.3 405.42 502.91 394.94 498.71 383.27 490.79 371.61 482.64 359.92 472.86 348.91 462.66 338.04 453.68 328.05 444.5 319.64 435.37 311.61 427.22 305.41 418.42 301.66 408.85 298.47 399.55 297.88 388.96 300.35 377.22 303.34 365.49 308.98 353.76 316.55 342.82 324.28 332.17 333.76 322.76 344.32 315.5 354.86 309.01 366.47 305.14 378.57 304.49 390.66 304.67 403.31 307.89 415.92 314.14" stroke-dasharray="2 3" transform="rotate(72.72, 400, 400)" opacity="0.73"></path><path d="M412.72 325.18C423.67 330.62 433.38 337.56 441.48 345.27 449.47 352.24 455.71 359.97 459.89 368.15 463.89 375.73 465.85 384.16 465.62 393.33 465.46 402.3 463.43 412.37 459.54 423.38 456.26 434.38 451.75 445.3 446.45 455.47 441.81 465.44 436.18 474.25 429.76 481.07 423.69 487.14 416.5 490.66 408.33 491.03 400.24 490.39 390.99 486.61 380.84 479.75 370.7 472.71 360.65 464.13 351.27 454.99 342.01 446.67 333.57 437.98 326.54 429.26 319.8 421.27 314.67 412.78 311.65 403.85 309.06 395.14 308.7 385.57 310.96 375.33 313.64 365.09 318.61 355.16 325.26 346.15 332.08 337.34 340.43 329.79 349.74 324.17 359.08 319.1 369.34 316.29 380 316.16 390.67 316.6 401.76 319.6 412.72 325.18" stroke-dasharray="2 0" transform="rotate(76.76, 400, 400)" opacity="0.77"></path><path d="M409.04 336.22C418.35 340.99 426.53 347.12 433.31 354 440.01 360.4 445.23 367.53 448.73 375.08 452.13 382.21 453.85 390.02 453.76 398.33 453.75 406.49 452.16 415.42 448.93 424.87 446.14 434.32 442.19 443.42 437.47 451.64 433.21 459.7 428.06 466.59 422.22 471.69 416.65 476.27 410.17 478.72 402.95 478.6 395.81 477.83 387.78 474.53 379.12 468.71 370.46 462.76 362.01 455.4 354.2 447.43 346.47 439.96 339.51 432.02 333.78 423.98 328.26 416.43 324.11 408.5 321.76 400.36 319.71 392.38 319.54 383.89 321.57 375.12 323.92 366.34 328.21 358.11 333.92 350.85 339.78 343.73 346.96 337.83 354.97 333.61 363.03 329.75 371.88 327.79 381.04 328.04 390.23 328.63 399.73 331.34 409.04 336.22" stroke-dasharray="4 9" transform="rotate(80.80000000000001, 400, 400)" opacity="0.81"></path><path d="M405.02 347.26C412.71 351.33 419.43 356.58 424.96 362.52 430.46 368.18 434.75 374.51 437.63 381.22 440.49 387.67 441.98 394.65 442.01 401.94 442.13 409.13 440.92 416.79 438.32 424.67 436.01 432.54 432.66 439.87 428.58 446.3 424.82 452.61 420.26 457.82 415.13 461.5 410.18 464.84 404.51 466.45 398.31 466.05 392.16 465.25 385.37 462.47 378.18 457.67 370.98 452.78 364.05 446.67 357.74 439.93 351.47 433.49 345.9 426.52 341.38 419.41 337 412.61 333.77 405.5 332 398.32 330.44 391.25 330.42 383.93 332.19 376.6 334.19 369.27 337.77 362.62 342.53 356.94 347.41 351.33 353.39 346.84 360.06 343.78 366.79 340.93 374.17 339.63 381.8 340.09 389.46 340.75 397.34 343.12 405.02 347.26" stroke-dasharray="7 5" transform="rotate(84.84, 400, 400)" opacity="0.85"></path><path d="M400.82 358.3C413 364.84 422.01 375.16 426.68 386.62 431.32 397.52 431.89 410.21 427.7 422.78 424.26 435.35 417.21 445.31 408.47 450.59 400.19 455.09 389.55 454.09 378.04 446.63 366.52 438.95 356.29 427.5 349.37 415.44 342.79 404.03 340.01 391.46 342.8 379.68 346.19 367.9 354.49 359.01 365.06 354.61 375.83 350.63 388.64 351.58 400.82 358.3" stroke-dasharray="10 9" transform="rotate(88.88, 400, 400)" opacity="0.89"></path><path d="M396.59 369.34C405.63 374.38 412.35 382.4 415.91 391.35 419.49 400.04 420.1 409.96 417.09 419.34 414.49 428.71 409.01 435.7 402.19 439.08 395.62 442.09 387.37 441.15 378.72 435.59 370.07 429.91 362.63 421.23 357.75 411.92 353.05 402.9 351.19 393.04 353.41 384.15 355.98 375.25 362.16 368.91 370.03 366.02 378.02 363.3 387.55 364.2 396.59 369.34" stroke-dasharray="5 1" transform="rotate(92.92, 400, 400)" opacity="0.92"></path><path d="M392.48 380.39C404.42 387.15 410.47 402.15 406.48 414.58 403.19 426.99 391.77 431.77 380.19 424.55 368.6 417.11 361.07 401.65 364.03 389.69 367.62 377.72 380.54 373.42 392.48 380.39" stroke-dasharray="11 8" transform="rotate(96.96, 400, 400)" opacity="0.96"></path></g></svg>