<svg xmlns="http://www.w3.org/2000/svg" version="1.1" xmlns:xlink="http://www.w3.org/1999/xlink" xmlns:svgjs="http://svgjs.dev/svgjs" viewBox="0 0 800 1200" width="800" height="1200"><g stroke-width="10" stroke="hsla(88, 92%, 24%, 1.00)" fill="none"><circle r="17.5" cx="0" cy="0" fill="hsla(88, 92%, 24%, 1.00)" stroke="none"></circle><circle r="17.5" cx="0" cy="100" fill="hsla(89, 73%, 48%, 1.00)" stroke="none"></circle><circle r="17.5" cx="0" cy="200" fill="hsla(88, 92%, 24%, 1.00)" stroke="none"></circle><circle r="17.5" cx="0" cy="300" fill="hsla(89, 73%, 48%, 1.00)" stroke="none"></circle><circle r="17.5" cx="0" cy="400" fill="hsla(88, 92%, 24%, 1.00)" stroke="none"></circle><circle r="17.5" cx="0" cy="500" fill="hsla(89, 73%, 48%, 1.00)" stroke="none"></circle><circle r="17.5" cx="0" cy="600" fill="hsla(88, 92%, 24%, 1.00)" stroke="none"></circle><circle r="17.5" cx="0" cy="700" fill="hsla(89, 73%, 48%, 1.00)" stroke="none"></circle><circle r="17.5" cx="0" cy="800" fill="hsla(88, 92%, 24%, 1.00)" stroke="none"></circle><circle r="17.5" cx="0" cy="900" fill="hsla(89, 73%, 48%, 1.00)" stroke="none"></circle><circle r="17.5" cx="0" cy="1000" fill="hsla(88, 92%, 24%, 1.00)" stroke="none"></circle><circle r="17.5" cx="0" cy="1100" fill="hsla(89, 73%, 48%, 1.00)" stroke="none"></circle><circle r="17.5" cx="133.33333333333334" cy="0" fill="hsla(88, 92%, 24%, 1.00)" stroke="none"></circle><circle r="17.5" cx="133.33333333333334" cy="100" fill="hsla(89, 73%, 48%, 1.00)" stroke="none"></circle><circle r="17.5" cx="133.33333333333334" cy="200" fill="hsla(88, 92%, 24%, 1.00)" stroke="none"></circle><circle r="17.5" cx="133.33333333333334" cy="300" fill="hsla(89, 73%, 48%, 1.00)" stroke="none"></circle><circle r="17.5" cx="133.33333333333334" cy="400" fill="hsla(88, 92%, 24%, 1.00)" stroke="none"></circle><circle r="17.5" cx="133.33333333333334" cy="500" fill="hsla(89, 73%, 48%, 1.00)" stroke="none"></circle><circle r="17.5" cx="133.33333333333334" cy="600" fill="hsla(88, 92%, 24%, 1.00)" stroke="none"></circle><circle r="17.5" cx="133.33333333333334" cy="700" fill="hsla(89, 73%, 48%, 1.00)" stroke="none"></circle><circle r="17.5" cx="133.33333333333334" cy="800" fill="hsla(88, 92%, 24%, 1.00)" stroke="none"></circle><circle r="17.5" cx="133.33333333333334" cy="900" fill="hsla(89, 73%, 48%, 1.00)" stroke="none"></circle><circle r="17.5" cx="133.33333333333334" cy="1000" fill="hsla(88, 92%, 24%, 1.00)" stroke="none"></circle><circle r="17.5" cx="133.33333333333334" cy="1100" fill="hsla(89, 73%, 48%, 1.00)" stroke="none"></circle><circle r="17.5" cx="266.6666666666667" cy="0" fill="hsla(88, 92%, 24%, 1.00)" stroke="none"></circle><circle r="17.5" cx="266.6666666666667" cy="100" fill="hsla(89, 73%, 48%, 1.00)" stroke="none"></circle><circle r="17.5" cx="266.6666666666667" cy="200" fill="hsla(88, 92%, 24%, 1.00)" stroke="none"></circle><circle r="17.5" cx="266.6666666666667" cy="300" fill="hsla(89, 73%, 48%, 1.00)" stroke="none"></circle><circle r="17.5" cx="266.6666666666667" cy="400" fill="hsla(88, 92%, 24%, 1.00)" stroke="none"></circle><circle r="17.5" cx="266.6666666666667" cy="500" fill="hsla(89, 73%, 48%, 1.00)" stroke="none"></circle><circle r="17.5" cx="266.6666666666667" cy="600" fill="hsla(88, 92%, 24%, 1.00)" stroke="none"></circle><circle r="17.5" cx="266.6666666666667" cy="700" fill="hsla(89, 73%, 48%, 1.00)" stroke="none"></circle><circle r="17.5" cx="266.6666666666667" cy="800" fill="hsla(88, 92%, 24%, 1.00)" stroke="none"></circle><circle r="17.5" cx="266.6666666666667" cy="900" fill="hsla(89, 73%, 48%, 1.00)" stroke="none"></circle><circle r="17.5" cx="266.6666666666667" cy="1000" fill="hsla(88, 92%, 24%, 1.00)" stroke="none"></circle><circle r="17.5" cx="266.6666666666667" cy="1100" fill="hsla(89, 73%, 48%, 1.00)" stroke="none"></circle><circle r="17.5" cx="400" cy="0" fill="hsla(88, 92%, 24%, 1.00)" stroke="none"></circle><circle r="17.5" cx="400" cy="100" fill="hsla(89, 73%, 48%, 1.00)" stroke="none"></circle><circle r="17.5" cx="400" cy="200" fill="hsla(88, 92%, 24%, 1.00)" stroke="none"></circle><circle r="17.5" cx="400" cy="300" fill="hsla(89, 73%, 48%, 1.00)" stroke="none"></circle><circle r="17.5" cx="400" cy="400" fill="hsla(88, 92%, 24%, 1.00)" stroke="none"></circle><circle r="17.5" cx="400" cy="500" fill="hsla(89, 73%, 48%, 1.00)" stroke="none"></circle><circle r="17.5" cx="400" cy="600" fill="hsla(88, 92%, 24%, 1.00)" stroke="none"></circle><circle r="17.5" cx="400" cy="700" fill="hsla(89, 73%, 48%, 1.00)" stroke="none"></circle><circle r="17.5" cx="400" cy="800" fill="hsla(88, 92%, 24%, 1.00)" stroke="none"></circle><circle r="17.5" cx="400" cy="900" fill="hsla(89, 73%, 48%, 1.00)" stroke="none"></circle><circle r="17.5" cx="400" cy="1000" fill="hsla(88, 92%, 24%, 1.00)" stroke="none"></circle><circle r="17.5" cx="400" cy="1100" fill="hsla(89, 73%, 48%, 1.00)" stroke="none"></circle><circle r="17.5" cx="533.3333333333334" cy="0" fill="hsla(88, 92%, 24%, 1.00)" stroke="none"></circle><circle r="17.5" cx="533.3333333333334" cy="100" fill="hsla(89, 73%, 48%, 1.00)" stroke="none"></circle><circle r="17.5" cx="533.3333333333334" cy="200" fill="hsla(88, 92%, 24%, 1.00)" stroke="none"></circle><circle r="17.5" cx="533.3333333333334" cy="300" fill="hsla(89, 73%, 48%, 1.00)" stroke="none"></circle><circle r="17.5" cx="533.3333333333334" cy="400" fill="hsla(88, 92%, 24%, 1.00)" stroke="none"></circle><circle r="17.5" cx="533.3333333333334" cy="500" fill="hsla(89, 73%, 48%, 1.00)" stroke="none"></circle><circle r="17.5" cx="533.3333333333334" cy="600" fill="hsla(88, 92%, 24%, 1.00)" stroke="none"></circle><circle r="17.5" cx="533.3333333333334" cy="700" fill="hsla(89, 73%, 48%, 1.00)" stroke="none"></circle><circle r="17.5" cx="533.3333333333334" cy="800" fill="hsla(88, 92%, 24%, 1.00)" stroke="none"></circle><circle r="17.5" cx="533.3333333333334" cy="900" fill="hsla(89, 73%, 48%, 1.00)" stroke="none"></circle><circle r="17.5" cx="533.3333333333334" cy="1000" fill="hsla(88, 92%, 24%, 1.00)" stroke="none"></circle><circle r="17.5" cx="533.3333333333334" cy="1100" fill="hsla(89, 73%, 48%, 1.00)" stroke="none"></circle><circle r="17.5" cx="666.6666666666667" cy="0" fill="hsla(88, 92%, 24%, 1.00)" stroke="none"></circle><circle r="17.5" cx="666.6666666666667" cy="100" fill="hsla(89, 73%, 48%, 1.00)" stroke="none"></circle><circle r="17.5" cx="666.6666666666667" cy="200" fill="hsla(88, 92%, 24%, 1.00)" stroke="none"></circle><circle r="17.5" cx="666.6666666666667" cy="300" fill="hsla(89, 73%, 48%, 1.00)" stroke="none"></circle><circle r="17.5" cx="666.6666666666667" cy="400" fill="hsla(88, 92%, 24%, 1.00)" stroke="none"></circle><circle r="17.5" cx="666.6666666666667" cy="500" fill="hsla(89, 73%, 48%, 1.00)" stroke="none"></circle><circle r="17.5" cx="666.6666666666667" cy="600" fill="hsla(88, 92%, 24%, 1.00)" stroke="none"></circle><circle r="17.5" cx="666.6666666666667" cy="700" fill="hsla(89, 73%, 48%, 1.00)" stroke="none"></circle><circle r="17.5" cx="666.6666666666667" cy="800" fill="hsla(88, 92%, 24%, 1.00)" stroke="none"></circle><circle r="17.5" cx="666.6666666666667" cy="900" fill="hsla(89, 73%, 48%, 1.00)" stroke="none"></circle><circle r="17.5" cx="666.6666666666667" cy="1000" fill="hsla(88, 92%, 24%, 1.00)" stroke="none"></circle><circle r="17.5" cx="666.6666666666667" cy="1100" fill="hsla(89, 73%, 48%, 1.00)" stroke="none"></circle><circle r="17.5" cx="800.0000000000001" cy="0" fill="hsla(88, 92%, 24%, 1.00)" stroke="none"></circle><circle r="17.5" cx="800.0000000000001" cy="100" fill="hsla(89, 73%, 48%, 1.00)" stroke="none"></circle><circle r="17.5" cx="800.0000000000001" cy="200" fill="hsla(88, 92%, 24%, 1.00)" stroke="none"></circle><circle r="17.5" cx="800.0000000000001" cy="300" fill="hsla(89, 73%, 48%, 1.00)" stroke="none"></circle><circle r="17.5" cx="800.0000000000001" cy="400" fill="hsla(88, 92%, 24%, 1.00)" stroke="none"></circle><circle r="17.5" cx="800.0000000000001" cy="500" fill="hsla(89, 73%, 48%, 1.00)" stroke="none"></circle><circle r="17.5" cx="800.0000000000001" cy="600" fill="hsla(88, 92%, 24%, 1.00)" stroke="none"></circle><circle r="17.5" cx="800.0000000000001" cy="700" fill="hsla(89, 73%, 48%, 1.00)" stroke="none"></circle><circle r="17.5" cx="800.0000000000001" cy="800" fill="hsla(88, 92%, 24%, 1.00)" stroke="none"></circle><circle r="17.5" cx="800.0000000000001" cy="900" fill="hsla(89, 73%, 48%, 1.00)" stroke="none"></circle><circle r="17.5" cx="800.0000000000001" cy="1000" fill="hsla(88, 92%, 24%, 1.00)" stroke="none"></circle><circle r="17.5" cx="800.0000000000001" cy="1100" fill="hsla(89, 73%, 48%, 1.00)" stroke="none"></circle></g></svg>
