<svg xmlns="http://www.w3.org/2000/svg" version="1.1" xmlns:xlink="http://www.w3.org/1999/xlink" xmlns:svgjs="http://svgjs.dev/svgjs" viewBox="0 0 800 800" opacity="0.57"><defs><linearGradient x1="50%" y1="0%" x2="50%" y2="100%" id="uundulate-grad"><stop stop-color="hsl(1.4, 100%, 67%)" stop-opacity="1" offset="45%"></stop><stop stop-color="hsl(167, 52%, 78%)" stop-opacity="1" offset="100%"></stop></linearGradient></defs><g stroke-width="2" stroke="url(#uundulate-grad)" fill="none"><path d="M753.8344049055797 207.82177826614839C791.3190844171952 327.50861549660885 702.1005650061916 530.9186124029252 584.249010537744 642.9306791227591C466.3974560692965 754.942745842593 295.97268175037834 798.3108425457244 188.1469434570314 745.479698521352C80.32120516368445 692.6485544969796 94.86518136468777 506.06060907112396 66.6854667296792 389.3411878057717C38.50575209467064 272.62176654041957 24.86630890009718 257.11287388466826 52.884313208989795 185.2264764476605C80.90231751788235 113.34007901065263 127.95558831382107 68.61827511461519 201.17188741236282 44.28648010813379C274.38818651090446 19.95468510165233 289.184524404237 34.36400663363054 404.3225488819903 68.43386041655009C519.4605733597436 102.50371419946964 716.3497253939645 88.13494103568803 753.8344049055797 207.82177826614839C791.3190844171952 327.50861549660885 702.1005650061916 530.9186124029252 584.249010537744 642.9306791227591 "></path><path d="M739.6810287093567 215.50894253589308C775.6663210405072 330.4083062771351 690.0165424059439 525.6819033071988 576.8790501162342 633.2134873582394C463.7415578265245 740.7450714092797 300.1337744803632 782.3784442442861 196.62106571875006 731.6605459808884C93.10835695713712 680.942647717491 107.07057411010027 501.8182201086695 80.01804806049205 389.76757569393146C52.96552201088383 277.7169312791933 39.8716565440933 262.82839432967216 66.76894068063018 193.81745279014467C93.66622481716706 124.80651125061712 138.8373647812682 81.87357951042117 209.1250119158683 58.51505630419905C279.4126590504684 35.156533097976876 293.6171434280675 48.98948176867589 404.1496469267106 81.6965414002787C514.6821504253539 114.40360103188146 703.6957363782058 100.6095787946511 739.6810287093567 215.50894253589308C775.6663210405072 330.4083062771351 690.0165424059439 525.6819033071988 576.8790501162342 633.2134873582394 "></path><path d="M725.5276525131335 223.19604577048153C760.0135576638195 333.30793602250515 677.9325198056962 520.4451331763162 569.5090896947245 623.4962345585633C461.0856595837528 726.5473359408106 304.294867210348 766.4459849076914 205.09518798046884 717.8413324052688C105.89550875058973 669.2366799028462 119.27596685551276 497.575770111059 93.35062939130489 390.19390254693496C67.42529192709696 282.8120349828109 54.877004188089415 268.5438537395198 80.65356815227062 202.4083680974726C106.43013211645177 136.27288245542536 149.71914124871535 95.12882287107095 217.07813641937378 72.74357146510806C284.4371315900322 50.35832005914517 298.049762451898 63.61489586856504 403.9767449714311 94.95916134885107C509.9037274909641 126.30342682913704 691.0417473624473 113.08415551845798 725.5276525131335 223.19604577048153C760.0135576638195 333.30793602250515 677.9325198056962 520.4451331763162 569.5090896947245 623.4962345585633 "></path><path d="M711.374245799332 230.88314900506998C744.3607637695536 336.20756576787517 665.8484666878704 515.2083630454335 562.1390987556366 613.7789817588874C458.4297308234028 712.3496004723412 308.4559294227547 750.513525571097 213.5692797246095 704.0221188296491C118.68263002646421 657.5307120882014 131.48132908334713 493.3333201134485 106.68318020453955 390.62022939993847C81.88503132573203 287.90713868642854 69.88232131450741 274.2593131493675 94.53816510633288 210.99928340480062C119.19400889815836 147.73925366023366 160.60088719858442 108.38406623172074 225.03123040530113 86.97208662601707C289.4615736120179 65.56010702031347 302.4823509581504 78.2403099684542 403.8038124985733 108.22178129742343C505.1252740389963 138.20325262639267 678.3877278291105 125.5587322422648 711.374245799332 230.88314900506998C744.3607637695536 336.20756576787517 665.8484666878704 515.2083630454335 562.1390987556366 613.7789817588874 "></path><path d="M697.220900120687 238.57028275723655C728.7080309104439 339.1072260308233 653.7644746052009 509.97162343212904 554.769168851705 604.0617594767895C455.77386309820895 698.15189552145 312.6170526703178 734.5810967520803 222.04343250390633 690.2029357716076C131.46981233749494 645.8247747911347 143.6867523463377 489.0909006334159 120.01579205293052 391.0465867705201C96.34483175952334 293.0022729076243 84.88769947608165 279.97480307679325 108.4228230955514 219.59022922970667C131.9579467150212 159.20565538262008 171.48269418360968 121.63934010994859 232.98438542638473 101.20063230450421C294.48607666915984 80.76192449905983 306.915000499559 92.86575458592148 403.6309410608719 121.48443176357392C500.3468816221846 150.10310894122637 665.7337693309302 138.0333394836498 697.220900120687 238.57028275723655C728.7080309104439 339.1072260308233 653.7644746052009 509.97162343212904 554.769168851705 604.0617594767895 "></path><path d="M683.0675239244639 246.25741650940313C713.055267533756 342.00688629377146 641.6804520049533 504.7348838188245 547.3992084301951 594.3445371946916C453.1179648554371 683.9541905705587 316.7781454003026 718.6486679330638 230.5175547656251 676.3837527135659C144.2569641309476 634.118837494068 155.8921450917502 484.84848115338343 133.34837338374336 391.4729441411017C110.80460167573654 298.0974071288199 99.89304712007777 285.69029300421903 122.30745056719184 228.1811750546127C144.7218540143059 170.67205710500644 182.36447065105688 134.8946139881765 240.9375099298902 115.4291779829914C299.51054920872366 95.96374197780625 311.34761952338954 107.49119920338876 403.4580391055922 134.7470822297244C495.5684586877949 162.00296525606007 653.0797803151715 150.5079467250348 683.0675239244639 246.25741650940313C713.055267533756 342.00688629377146 641.6804520049533 504.7348838188245 547.3992084301951 594.3445371946916 "></path><path d="M668.9141477282407 253.9445502615697C697.4025041570683 344.9065465567196 629.5964294047055 499.49814420552 540.0292480086855 584.6273149125938C450.46206661266524 669.7564856196675 320.93923813028744 702.7162391140474 238.99167702734383 662.5645696555245C157.04411592440022 622.4129001970014 168.0975378371627 480.60606167335095 146.6809547145562 391.89930151168346C125.26437159194967 303.19254135001574 114.89839476407388 291.4057829316448 136.19207803883222 236.7721208795188C157.48576131359061 182.13845882739287 193.24624711850402 148.1498878664044 248.89063443339575 129.65772366147854C304.5350217482875 111.16555945655267 315.78023854722005 122.11664382085604 403.2851371503127 148.0097326958749C490.79003575340516 173.90282157089376 640.4257912994129 162.98255396641974 668.9141477282407 253.9445502615697C697.4025041570683 344.9065465567196 629.5964294047055 499.49814420552 540.0292480086855 584.6273149125938 "></path><path d="M654.7607715320174 261.6316840137363C681.7497407803804 347.80620681966775 617.5124068044579 494.2614045922155 532.6592875871756 574.9100926304959C447.8061683698934 655.5587806687763 325.1003308602724 686.7838102950309 247.4657992890626 648.7453865974827C169.83126771785282 610.7069628999346 180.3029305825752 476.3636421933186 160.01353604536905 392.325658882265C139.72414150816286 308.28767557121137 129.90374240807 297.1212728590706 150.07670551047266 245.3630667044249C170.24966861287533 193.60486054977923 204.12802358595115 161.40516174463232 256.8437589369012 143.88626933996568C309.5594942878513 126.36737693529909 320.21285757105056 136.74208843832332 403.112235195033 161.27238316202545C486.01161281901545 185.80267788572752 627.7718022836543 175.45716120780475 654.7607715320174 261.6316840137363C681.7497407803804 347.80620681966775 617.5124068044579 494.2614045922155 532.6592875871756 574.9100926304959 "></path><path d="M640.6074105945834 269.31883302469186C666.0969926624817 350.70588234140496 605.4283994629993 489.02468023770007 525.2893424244551 565.1928856071871C445.1502853859106 641.3610909766742 329.26143884904627 670.8513967348035 255.93993680957038 634.9262187982303C182.6184347700945 599.001040861657 192.50833858677674 472.12123797207516 173.3461326349709 392.75203151163566C154.1839266831651 313.38282505119616 144.90910531085518 302.8367780452854 163.9613482409021 253.95402778812002C183.0135911709491 205.07127753095472 215.00981531218736 174.66045088164924 264.79689869919576 158.11483027724188C314.5839820862042 141.56920967283452 324.64549185367014 151.36754831457966 402.9393484985425 174.535048886965C481.2332051434148 197.70254945935028 615.1178285266849 187.93178370797875 640.6074105945834 269.31883302469186C666.0969926624817 350.70588234140496 605.4283994629993 489.02468023770007 525.2893424244551 565.1928856071871 "></path><path d="M626.4540343983601 277.00592100049124C650.4442292857939 353.6054968279859 593.3443768627517 483.7878948480284 517.9193820029452 555.4756175487221C442.49438714313874 627.1633402494158 333.4225315790311 654.9189221394199 264.41405907128916 621.1069899638215C195.4055865635471 587.2950577882232 204.71373133218924 467.8787727156755 186.67871396578374 393.1783431058501C168.64369659937825 318.4779134960247 159.9144529548513 308.552222196344 177.84597571254255 262.5449278366589C195.7774984702338 216.5376334769739 225.89159177963455 187.91567898350996 272.75002320270124 172.34333017936183C319.608454625768 156.77098137521375 329.07811087750065 165.99294715567976 402.7664465432629 187.7976535767483C476.454782209025 209.6023599978168 602.4638395109263 200.40634517299657 626.4540343983601 277.00592100049124C650.4442292857939 353.6054968279859 593.3443768627517 483.7878948480284 517.9193820029452 555.4756175487221 "></path><path d="M612.3006429433478 284.6930700114469C634.7914506503171 356.5051723497231 581.2603390037149 478.5511704935129 510.5494063226464 545.7584105254132C439.8384736415778 612.9656505573137 337.583609050227 638.9865085791924 272.8881660742188 607.287822164569C208.1927230982107 575.5891357499456 216.91910881881267 463.6363684944322 200.01128003780752 393.6047157352209C183.10345125680237 323.5730629760095 174.9197853400583 314.2677273825588 191.73058792539388 271.1358889203541C208.5413905107294 228.00405045814938 236.77335298829263 201.17096812052694 280.70313244741766 186.57189111663808C324.63291190654274 171.97281411274923 333.5107146425422 180.6184070319361 402.5935293291942 201.06031930168785C471.6763440158462 221.50223157143955 589.8098352363786 212.88096767317063 612.3006429433478 284.6930700114469C634.7914506503171 356.5051723497231 581.2603390037149 478.5511704935129 510.5494063226464 545.7584105254132 "></path><path d="M598.1472667471246 292.3801885048244C619.1386872736293 359.4048173538822 569.1763164034674 473.31441562141936 503.17944590113666 536.0411729845264C437.18257539880597 598.7679303476333 341.7447017802118 623.0540645013868 281.3622883359376 593.4686238477384C220.97987489166331 563.8831831940898 229.12450156422517 459.39393375561053 213.34386136862037 394.03105784701336C197.56322117301556 328.6681819384162 189.92513298405441 319.9832020511955 205.61521539703426 279.7268194864711C221.3052978100141 239.47043692174668 247.65512945573983 214.42622673996573 288.6562569509232 200.80042153633616C329.65738444610656 187.1746163327066 337.9433336663727 195.24383639061432 402.4206273739146 214.32295450904928C466.8979210814564 233.40207262748424 577.1558462206201 225.3555596557665 598.1472667471246 292.3801885048244C619.1386872736293 359.4048173538822 569.1763164034674 473.31441562141936 503.17944590113666 536.0411729845264 "></path><path d="M583.9939058096904 300.0673222569909C603.4859391557304 362.30447761683035 557.0923090620087 468.07767600811485 495.80950073841586 526.3239507024284C434.5266924148232 584.570225396742 345.90580976898576 607.1216356823704 289.8364258564454 579.6494407896968C233.76704194390499 552.1772458970231 241.32990956842673 455.15151427557817 226.67645795822227 394.457415217595C212.02300634801782 333.7633161596119 204.9304958868396 325.69869197862124 219.49985812746377 288.3177653113772C234.06922036808788 250.9368386441331 258.536921181976 227.68150061819364 296.60939671321773 215.0289672148233C334.68187224445944 202.37643381145296 342.3759679489923 209.8692810080816 402.24774067742396 227.58560497519977C462.11951340585574 245.30192894231794 564.5018724636506 237.8301668971515 583.9939058096904 300.0673222569909C603.4859391557304 362.30447761683035 557.0923090620087 468.07767600811485 495.80950073841586 526.3239507024284 "></path><path d="M569.8405296134674 307.75447126794654C587.8331757790427 365.20415313856756 545.008286461761 462.8409516535994 488.43954031690623 516.6067436791197C431.8707941720513 570.3725357046399 350.06690249897065 591.1892221221431 298.3105481181641 565.8302729904442C246.5541937373576 540.4713238587456 253.53530231383922 450.90911005433475 240.00903928903506 394.8837878469658C226.48277626423095 338.85846563959666 219.9358435308357 331.4141971648361 233.38448559910415 296.90872639507234C246.8331276673726 262.40325562530853 269.41869764942317 240.9367897552106 304.5625212167232 229.2575281520995C339.70634478402326 217.57826654898844 346.8085869728228 224.49474088433794 402.07483872214436 240.84827070013932C457.34109047146603 257.2018005159407 551.847883447892 250.30478939732558 569.8405296134674 307.75447126794654C587.8331757790427 365.20415313856756 545.008286461761 462.8409516535994 488.43954031690623 516.6067436791197 "></path><path d="M555.6871228996661 315.441574502535C572.1803818847768 368.1037828839376 532.9242333439352 457.6041815227168 481.06954937781825 506.88949087944366C429.21486541170134 556.1748002361705 354.22796471137735 575.2567627855485 306.78463986230474 552.0110594148246C259.34131501323213 528.7653560441007 265.74066454167354 446.66666005672425 253.34159010226978 395.3101146999693C240.94251566286601 343.95356934321427 234.9411606572537 337.12965657468374 247.26908255316647 305.4996417024003C259.5970044490792 273.86962683011683 280.3004435992922 254.19203311586034 312.51561520265057 243.48604331300857C344.73078680600895 232.78005351015673 351.2411754790752 239.1201549842271 401.90190624928664 254.1108906487117C452.5626370194982 269.10162631319633 539.1938639145553 262.7793661211324 555.6871228996661 315.441574502535C572.1803818847768 368.1037828839376 532.9242333439352 457.6041815227168 481.06954937781825 506.88949087944366 "></path><path d="M541.5337467034428 323.1287387722797C556.527618508089 371.00347366446385 520.8402107436875 452.3674724269904 473.6995889563085 497.17229911492393C426.5589671689295 541.9771258028575 358.38905744136224 559.32436448411 315.2587621240235 538.191906874361C272.12846680668474 517.0594492646121 277.94605728708603 442.4242710942699 266.6741714330826 395.73650258812904C255.4022855790792 349.0487340819881 249.94650830124982 342.84517701968764 261.15371002480686 314.0906180448845C272.3609117483639 285.3360590700813 291.1822200667394 267.4473375116664 320.46873970615604 257.7146195090738C349.75525934557277 247.98190150648128 355.6737945029057 253.7456301192725 401.72900429400704 267.37357163244036C447.7842140851084 281.00151314560816 526.5398748987967 275.2540038800955 541.5337467034428 323.1287387722797C556.527618508089 371.00347366446385 520.8402107436875 452.3674724269904 473.6995889563085 497.17229911492393 "></path><path d="M527.3804010247977 330.8158267480791C540.8748856489792 373.9030881510448 508.756218661018 447.1306870373187 466.3296590523769 487.4550310564589C423.90309944373575 527.7793750755991 362.55018068892525 543.3918898887264 323.73291490332036 524.3726780399522C284.9156491177155 505.3534661911783 290.15148055007666 438.18180583787023 280.0067832814736 396.1628141823434C269.86208601287046 354.1438225268166 264.95188646282406 348.56062117074623 275.03836801402537 322.6815180934234C285.1248495652267 296.80241501610055 302.06402705176464 280.7025656135271 328.42189472723965 271.9431194111938C354.7797624027147 263.18367320886045 360.10644404431434 268.3710289603726 401.55613285630557 280.63617632222366C443.0058216682968 292.90132368407467 513.8859164006162 287.7285653451133 527.3804010247977 330.8158267480791C540.8748856489792 373.9030881510448 508.756218661018 447.1306870373187 466.3296590523769 487.4550310564589 "></path><path d="M513.2269943109965 338.50296050024565C525.2220917547133 376.80274841399296 496.67216554319225 441.8939474240142 458.959668113289 477.73780877436104C421.2471706833858 513.5816701247079 366.71124290133196 527.45946106971 332.20700664746096 510.5534949819107C297.70277039358996 493.6475288941116 302.356842777911 433.93938635783775 293.3393340947083 396.58917155292505C284.32182541150553 359.23895674801236 279.95720358924206 354.276111098172 288.9229649680877 331.2724639183295C297.8887263469333 308.268816738487 312.94577300163365 293.95783949175495 336.374988713167 286.1716650896809C359.8042044247004 278.3854906876069 364.53903255056673 282.9964735778399 401.38320038344784 293.89882678837415C438.22736821632884 304.8011799989084 501.2318968672796 300.2031725864983 513.2269943109965 338.50296050024565C525.2220917547133 376.80274841399296 496.67216554319225 441.8939474240142 458.959668113289 477.73780877436104 "></path><path d="M499.07361811477324 346.19009425241217C509.5693283780256 379.7024086769411 484.5881429429446 436.6572078107097 451.58970769177927 468.0205864922632C418.5912724406139 499.3839651738167 370.87233563131684 511.5270322506934 340.68112890917973 496.7343119238692C310.48992218704257 481.94159159704486 314.5622355233235 429.69696687780527 306.6719154255211 397.0155289235067C298.7815953277187 364.3340909692081 294.9625512332382 359.99160102559773 302.80759243972807 339.86340974323554C310.652633646218 319.73521846087334 323.82754946908085 307.21311336998286 344.32811321667253 300.40021076816805C364.8286769642642 293.5873081663533 368.9716515743973 297.62191819530716 401.21029842816824 307.16147725452464C433.44894528193913 316.7010363137421 488.577907851521 312.6777798278833 499.07361811477324 346.19009425241217C509.5693283780256 379.7024086769411 484.5881429429446 436.6572078107097 451.58970769177927 468.0205864922632 "></path><path d="M484.92027243612824 353.87722800457874C493.91659551891587 382.60206893988925 472.5041508602751 431.42046819740517 444.21977778784765 458.30336421016534C415.9354047154202 485.1862602229254 375.03345887887986 495.594603431677 349.1552816884766 482.91512886582757C323.27710449807336 470.23565429997825 326.76765878631414 425.45454739777284 320.00452727391206 397.44188629408836C313.24139576151003 369.4292251904038 309.9679293948124 365.7070909530235 316.69225042894664 348.45435556814164C323.41657146308086 331.20162018325976 334.7093564541061 320.4683872482108 352.28126823775614 314.62875644665525C369.85318002140616 308.7891256450997 373.40430111580594 312.24736281277444 401.0374269904667 320.42412772067513C428.67055286512755 328.6008926285758 475.9239493533405 325.15238706926823 484.92027243612824 353.87722800457874C493.91659551891587 382.60206893988925 472.5041508602751 431.42046819740517 444.21977778784765 458.30336421016534 "></path><path d="M470.766896239905 361.5643617567453C478.263832142228 385.5017292028374 460.42012826002735 426.18372858410066 436.84981736633785 448.58614192806743C413.27950647264834 470.9885552720342 379.1945516088647 479.66217461266046 357.62940395019535 469.09594580778594C336.06425629152596 458.5297170029115 338.97305153172664 421.2121279177404 333.3371086047249 397.86824366467C327.70116567772317 374.5243594115995 324.9732770388085 371.4225808804493 330.576877900587 357.04530139304774C336.1804787623655 342.6680219056461 345.59113292155325 333.7236611264387 360.2343927412616 328.8573021251424C374.87765256097 323.9909431238461 377.83692013963645 326.8728074302417 400.8645250351871 333.6867781868256C423.8921299307378 340.5007489434096 463.26996033758195 337.62699431065323 470.766896239905 361.5643617567453C478.263832142228 385.5017292028374 460.42012826002735 426.18372858410066 436.84981736633785 448.58614192806743 "></path><path d="M456.61350478489277 369.2514802501228C462.6110535067512 388.4013742069965 448.33609040099066 420.9469737120071 429.47984168603904 438.8689043871805C410.6235929710874 456.79083506235395 383.3556290800605 463.729730534855 366.103510953125 455.27674749095536C348.8513928261895 446.8237644470558 351.17842901835 416.9696931789189 346.6696746767487 398.29458577646255C342.1609203351473 379.6194783740062 339.97860942401553 377.138055549086 344.46149011343834 365.6362319591647C348.94437080286116 354.1344083692435 356.4728941302114 346.9789197458775 368.18750198597803 343.08583254484046C379.90210984174473 339.19274534380344 382.2695239046779 341.49823678891994 400.69160782111845 346.94941339418705C419.11369173755895 352.4005899994542 450.61595606303433 350.10158629324917 456.61350478489277 369.2514802501228C462.6110535067512 388.4013742069965 448.33609040099066 420.9469737120071 429.47984168603904 438.8689043871805 "></path><path d="M442.4601285886696 376.9386140022894C446.9582901300634 391.3010344699446 436.252067800743 415.7102340987026 422.1098812645293 429.15168210508267C407.96769472831556 442.5931301114627 387.5167218100454 447.7973017158385 374.5776332148438 441.4575644329138C361.6385446196421 435.1178271499891 363.3838217637625 412.72727369888645 360.0022560075615 398.7209431470442C356.6206902513605 384.7146125952019 354.98395706801165 382.8535454765118 358.3461175850788 374.2271777840708C361.70827810214587 365.60081009162985 367.3546705976585 360.2341936241054 376.14062648948357 357.3143782233276C384.92658238130855 354.39456282254986 386.70214292850847 356.1236814063872 400.51870586583885 360.2120638603376C414.33526880316924 364.3004463142879 437.9619670472757 362.5761935346341 442.4601285886696 376.9386140022894C446.9582901300634 391.3010344699446 436.252067800743 415.7102340987026 422.1098812645293 429.15168210508267 "></path><path d="M428.30675239244636 384.62573249566685C431.3055267533756 394.2006794741037 424.1680452004953 410.473479226609 414.7399208430195 419.4344445641957C405.3117964855437 428.39540990178244 391.6778145400303 431.86485763803296 383.0517554765625 427.63836611608315C374.4256964130948 423.41187459413334 375.589214509175 408.4848389600649 373.3348373383743 399.14728525883675C371.0804601675737 389.8097315576086 369.98930471200777 388.56902014514844 372.2307450567192 382.81810835018786C374.4721854014306 377.0671965552272 378.23644706510566 373.48945224354424 384.09375099298904 371.5429086430257C389.95105492087237 369.5963650425072 391.134761952339 370.74911076506544 400.3458039105592 373.474699067699C409.5568458687795 376.20028737033255 425.30797803151717 375.05078551723005 428.30675239244636 384.62573249566685C431.3055267533756 394.2006794741037 424.1680452004953 410.473479226609 414.7399208430195 419.4344445641957 "></path><path d="M414.1533761962232 392.3128662478334C415.6527633766878 397.10033973705185 412.08402260024764 405.2367396133045 407.36996042150975 409.71722228209785C402.65589824277185 414.1977049508912 395.8389072700151 415.9324288190165 391.5258777382813 413.8191830580416C387.2128482065474 411.70593729706667 387.7946072545875 404.2424194800325 386.66741866918716 399.5736426294184C385.5402300837868 394.90486577880426 384.9946523560039 394.2845100725742 386.1153725283596 391.4090541750939C387.2360927007153 388.5335982776136 389.11822353255286 386.7447261217721 392.0468754964945 385.77145432151286C394.9755274604362 384.7981825212536 395.5673809761695 385.3745553825327 400.1729019552796 386.7373495338495C404.77842293438977 388.1001436851663 412.65398901575855 387.525392758615 414.1533761962232 392.3128662478334C415.6527633766878 397.10033973705185 412.08402260024764 405.2367396133045 407.36996042150975 409.71722228209785 "></path></g></svg>